<?xml version="1.0" encoding="UTF-8" standalone="no"?>
<!-- Created with Inkscape (http://www.inkscape.org/) -->
<svg
   xmlns:dc="http://purl.org/dc/elements/1.1/"
   xmlns:cc="http://web.resource.org/cc/"
   xmlns:rdf="http://www.w3.org/1999/02/22-rdf-syntax-ns#"
   xmlns:svg="http://www.w3.org/2000/svg"
   xmlns="http://www.w3.org/2000/svg"
   xmlns:xlink="http://www.w3.org/1999/xlink"
   xmlns:sodipodi="http://inkscape.sourceforge.net/DTD/sodipodi-0.dtd"
   xmlns:inkscape="http://www.inkscape.org/namespaces/inkscape"
   height="102.40000pt"
   id="svg1858"
   inkscape:version="0.42"
   sodipodi:docbase="/home/aurium/.ies4linux/ie6"
   sodipodi:docname="ie_wine.svg"
   sodipodi:version="0.32"
   width="102.40000pt"
   inkscape:export-filename="/home/aurium/.ies4linux/ie6/ie_wine.png"
   inkscape:export-xdpi="49.157345"
   inkscape:export-ydpi="49.157345">
  <metadata
     id="metadata3">
    <rdf:RDF>
      <cc:Work
         rdf:about="">
        <dc:title>Etiquette Icons</dc:title>
        <dc:description />
        <dc:subject>
          <rdf:Bag>
            <rdf:li>hash</rdf:li>
            <rdf:li />
            <rdf:li>application</rdf:li>
            <rdf:li>beverage</rdf:li>
            <rdf:li>computer</rdf:li>
            <rdf:li>icons</rdf:li>
            <rdf:li>alcohol</rdf:li>
          </rdf:Bag>
        </dc:subject>
        <dc:publisher>
          <cc:Agent
             rdf:about="http://www.openclipart.org">
            <dc:title>Andy Fitzsimon</dc:title>
          </cc:Agent>
        </dc:publisher>
        <dc:creator>
          <cc:Agent>
            <dc:title>Andy Fitzsimon</dc:title>
          </cc:Agent>
        </dc:creator>
        <dc:rights>
          <cc:Agent>
            <dc:title>Andy Fitzsimon</dc:title>
          </cc:Agent>
        </dc:rights>
        <dc:date />
        <dc:format>image/svg+xml</dc:format>
        <dc:type
           rdf:resource="http://purl.org/dc/dcmitype/StillImage" />
        <cc:license
           rdf:resource="http://web.resource.org/cc/PublicDomain" />
        <dc:language>en</dc:language>
        <dc:contributor>
          <cc:Agent>
            <dc:title>Joel Montes de Oca</dc:title>
          </cc:Agent>
        </dc:contributor>
      </cc:Work>
      <cc:License
         rdf:about="http://web.resource.org/cc/PublicDomain">
        <cc:permits
           rdf:resource="http://web.resource.org/cc/Reproduction" />
        <cc:permits
           rdf:resource="http://web.resource.org/cc/Distribution" />
        <cc:permits
           rdf:resource="http://web.resource.org/cc/DerivativeWorks" />
      </cc:License>
    </rdf:RDF>
  </metadata>
  <defs
     id="defs1860">
    <linearGradient
       id="linearGradient8260">
      <stop
         style="stop-color:#383838;stop-opacity:0.44852942;"
         offset="0.0000000"
         id="stop8262" />
      <stop
         style="stop-color:#bababa;stop-opacity:0.65490198;"
         offset="0.50000000"
         id="stop8264" />
      <stop
         style="stop-color:#000000;stop-opacity:0.0000000;"
         offset="1.0000000"
         id="stop8266" />
    </linearGradient>
    <linearGradient
       id="linearGradient4362">
      <stop
         style="stop-color:#2958c3;stop-opacity:1.0000000;"
         offset="0.0000000"
         id="stop4364" />
      <stop
         style="stop-color:#3d9fff;stop-opacity:1.0000000;"
         offset="1.0000000"
         id="stop4366" />
    </linearGradient>
    <linearGradient
       id="linearGradient1990">
      <stop
         id="stop1991"
         offset="0.0000000"
         style="stop-color:#000000;stop-opacity:0.0000000;" />
      <stop
         id="stop1992"
         offset="0.50000000"
         style="stop-color:#000000;stop-opacity:0.19607843;" />
      <stop
         id="stop1993"
         offset="1.0000000"
         style="stop-color:#000000;stop-opacity:0.0000000;" />
    </linearGradient>
    <linearGradient
       id="linearGradient1982">
      <stop
         id="stop1983"
         offset="0.0000000"
         style="stop-color:#ffffff;stop-opacity:1.0000000;" />
      <stop
         id="stop1984"
         offset="0.60111111"
         style="stop-color:#ffffff;stop-opacity:0.078431375;" />
      <stop
         id="stop1985"
         offset="1.0000000"
         style="stop-color:#ffffff;stop-opacity:0.0000000;" />
    </linearGradient>
    <linearGradient
       id="linearGradient1954">
      <stop
         id="stop1955"
         offset="0.0000000"
         style="stop-color:#ffffff;stop-opacity:0.78431374;" />
      <stop
         id="stop3697"
         offset="0.81000000"
         style="stop-color:#990000;stop-opacity:0.0000000;" />
      <stop
         id="stop1957"
         offset="1.0000000"
         style="stop-color:#ffffff;stop-opacity:0.0000000;" />
    </linearGradient>
    <linearGradient
       id="linearGradient1806">
      <stop
         id="stop1807"
         offset="0.0000000"
         style="stop-color:#000000;stop-opacity:0.40677965;" />
      <stop
         id="stop3276"
         offset="0.64777780"
         style="stop-color:#000000;stop-opacity:0.073446326;" />
      <stop
         id="stop1808"
         offset="1.0000000"
         style="stop-color:#000000;stop-opacity:0.0000000;" />
    </linearGradient>
    <linearGradient
       id="linearGradient1918">
      <stop
         id="stop1919"
         offset="0.0000000"
         style="stop-color:#000000;stop-opacity:0.31638417;" />
      <stop
         id="stop1920"
         offset="0.50000000"
         style="stop-color:#000000;stop-opacity:0.079096042;" />
      <stop
         id="stop1921"
         offset="1.0000000"
         style="stop-color:#000000;stop-opacity:0.0000000;" />
    </linearGradient>
    <linearGradient
       id="linearGradient1908">
      <stop
         id="stop1909"
         offset="0.0000000"
         style="stop-color:#884631;stop-opacity:1.0000000;" />
      <stop
         id="stop3698"
         offset="0.62500000"
         style="stop-color:#df421e;stop-opacity:1.0000000;" />
      <stop
         id="stop3699"
         offset="0.81250000"
         style="stop-color:#efa08e;stop-opacity:1.0000000;" />
      <stop
         id="stop1910"
         offset="1"
         style="stop-color:#fff;stop-opacity:1;" />
    </linearGradient>
    <pattern
       height="48.000000"
       id="pattern1864"
       width="48.000000">
      <image
         height="48.000000"
         id="image1865"
         sodipodi:absref="/usr/share/icons/hicolor/48x48/apps/gnome-starthere.png"
         width="48.000000"
         xlink:href="/usr/share/icons/hicolor/48x48/apps/gnome-starthere.png" />
    </pattern>
    <pattern
       height="48.000000"
       id="pattern1873"
       width="48.000000">
      <image
         height="48.000000"
         id="image1874"
         sodipodi:absref="/usr/share/icons/hicolor/48x48/apps/im-jabber.png"
         width="48.000000"
         xlink:href="/usr/share/icons/hicolor/48x48/apps/im-jabber.png" />
    </pattern>
    <pattern
       height="48.000000"
       id="pattern1882"
       width="48.000000">
      <image
         height="48.000000"
         id="image1883"
         sodipodi:absref="/usr/share/icons/hicolor/48x48/apps/ooo_web.xpm"
         width="48.000000"
         xlink:href="/usr/share/icons/hicolor/48x48/apps/ooo_web.xpm" />
    </pattern>
    <pattern
       height="48.000000"
       id="pattern1891"
       width="48.000000">
      <image
         height="48.000000"
         id="image1892"
         sodipodi:absref="/usr/share/icons/hicolor/48x48/apps/wallpaper.png"
         width="48.000000"
         xlink:href="/usr/share/icons/hicolor/48x48/apps/wallpaper.png" />
    </pattern>
    <pattern
       height="48.000000"
       id="pattern1900"
       width="48.000000">
      <image
         height="48.000000"
         id="image1901"
         sodipodi:absref="/usr/share/icons/hicolor/48x48/apps/wine.png"
         width="48.000000"
         xlink:href="/usr/share/icons/hicolor/48x48/apps/wine.png" />
    </pattern>
    <linearGradient
       id="linearGradient1911"
       x1="78.753585"
       x2="26.172458"
       xlink:href="#linearGradient1908"
       y1="397.89075"
       y2="351.19707"
       gradientTransform="scale(1.184518,0.844225)"
       gradientUnits="userSpaceOnUse" />
    <linearGradient
       id="linearGradient1912"
       x1="17.133599"
       x2="26.262699"
       xlink:href="#linearGradient1918"
       y1="12.402272"
       y2="12.402272"
       gradientTransform="scale(1.598611,0.625543)"
       gradientUnits="userSpaceOnUse" />
    <linearGradient
       id="linearGradient1915"
       x1="68.265486"
       x2="28.057237"
       xlink:href="#linearGradient1908"
       y1="370.90508"
       y2="332.33321"
       gradientTransform="scale(1.133936,0.881884)"
       gradientUnits="userSpaceOnUse" />
    <linearGradient
       id="linearGradient1922"
       x1="104.84399"
       x2="28.429239"
       xlink:href="#linearGradient1918"
       y1="321.39782"
       y2="277.92343"
       gradientTransform="scale(0.946639,1.056369)"
       gradientUnits="userSpaceOnUse" />
    <linearGradient
       id="linearGradient1925"
       x1="41.803414"
       x2="34.710554"
       xlink:href="#linearGradient1982"
       y1="372.34343"
       y2="376.63461"
       gradientTransform="scale(0.967013,1.034112)"
       gradientUnits="userSpaceOnUse" />
    <linearGradient
       id="linearGradient1927"
       x1="23.770393"
       x2="53.662830"
       xlink:href="#linearGradient1990"
       y1="95.243884"
       y2="128.85731"
       gradientTransform="scale(0.988302,1.011837)"
       gradientUnits="userSpaceOnUse" />
    <radialGradient
       cx="41.875938"
       cy="37.865574"
       fx="34.828524"
       fy="31.584183"
       id="radialGradient1502"
       r="12.562782"
       xlink:href="#linearGradient1918"
       gradientUnits="userSpaceOnUse" />
    <radialGradient
       cx="0.50000000"
       cy="0.50000000"
       fx="0.67944252"
       fy="0.46875000"
       id="radialGradient1937"
       r="0.50000000"
       xlink:href="#linearGradient1918" />
    <radialGradient
       cx="0.84898806"
       cy="0.41226101"
       fx="0.56333953"
       fy="0.18582444"
       id="radialGradient1941"
       r="0.42322907"
       xlink:href="#linearGradient1918" />
    <radialGradient
       cx="58.375500"
       cy="22.775043"
       fx="53.432021"
       fy="22.164028"
       id="radialGradient1953"
       r="10.998282"
       xlink:href="#linearGradient1954"
       gradientUnits="userSpaceOnUse" />
    <pattern
       height="48.000000"
       id="pattern1961"
       width="48.000000">
      <image
         height="48.000000"
         id="image1962"
         sodipodi:absref="/usr/share/icons/hicolor/48x48/apps/wine.png"
         width="48.000000"
         xlink:href="/usr/share/icons/hicolor/48x48/apps/wine.png" />
    </pattern>
    <radialGradient
       cx="42.007257"
       cy="39.007645"
       fx="37.805072"
       fy="39.239628"
       id="radialGradient1977"
       r="9.8527928"
       xlink:href="#linearGradient1806"
       gradientUnits="userSpaceOnUse" />
    <linearGradient
       id="linearGradient1979"
       x1="49.627894"
       x2="68.691985"
       xlink:href="#linearGradient1954"
       y1="396.80029"
       y2="424.20239"
       gradientTransform="scale(1.233739,0.810545)"
       gradientUnits="userSpaceOnUse" />
    <linearGradient
       id="linearGradient1981"
       x1="76.440939"
       x2="99.764216"
       xlink:href="#linearGradient1982"
       y1="246.53215"
       y2="262.38469"
       gradientTransform="scale(0.789568,1.266516)"
       gradientUnits="userSpaceOnUse" />
    <linearGradient
       id="linearGradient1987"
       x1="101.15012"
       x2="83.709572"
       xlink:href="#linearGradient1982"
       y1="378.20698"
       y2="352.44402"
       gradientTransform="scale(1.168503,0.855796)"
       gradientUnits="userSpaceOnUse" />
    <linearGradient
       id="linearGradient1989"
       x1="23.057706"
       x2="21.619641"
       xlink:href="#linearGradient1982"
       y1="411.51218"
       y2="422.44497"
       gradientTransform="scale(1.088969,0.918300)"
       gradientUnits="userSpaceOnUse" />
    <linearGradient
       id="linearGradient1996"
       x1="48.353673"
       x2="51.658587"
       xlink:href="#linearGradient1982"
       y1="99.757841"
       y2="103.12432"
       gradientTransform="scale(0.917519,1.089896)"
       gradientUnits="userSpaceOnUse" />
    <linearGradient
       id="linearGradient1998"
       x1="27.254147"
       x2="21.609067"
       xlink:href="#linearGradient1990"
       y1="436.18505"
       y2="441.86894"
       gradientTransform="scale(1.121334,0.891795)"
       gradientUnits="userSpaceOnUse" />
    <linearGradient
       id="linearGradient3050"
       x1="45.023643"
       x2="181.64224"
       xlink:href="#linearGradient1982"
       y1="20.534979"
       y2="116.28294"
       gradientTransform="scale(0.961706,1.039819)"
       gradientUnits="userSpaceOnUse" />
    <linearGradient
       id="linearGradient1644"
       x1="81.211522"
       x2="5.4840095"
       xlink:href="#linearGradient1982"
       y1="116.07082"
       y2="70.989283"
       gradientTransform="scale(0.988302,1.011837)"
       gradientUnits="userSpaceOnUse" />
    <radialGradient
       spreadMethod="pad"
       gradientUnits="objectBoundingBox"
       r="0.5"
       fy="0.5"
       fx="0.5"
       cy="0.5"
       cx="0.5"
       id="radialGradient133"
       xlink:href="#linearGradient129" />
    <linearGradient
       spreadMethod="pad"
       gradientUnits="userSpaceOnUse"
       y2="-14.928557"
       x2="140.95704"
       y1="315.45090"
       x1="140.95698"
       id="linearGradient132"
       xlink:href="#linearGradient129"
       gradientTransform="scale(1.686248,0.593033)" />
    <sodipodi:namedview
       id="namedview301" />
    <defs
       id="defs300" />
    <linearGradient
       id="linearGradient129">
      <stop
         id="stop130"
         offset="0.000000"
         style="stop-color:#ffffff;stop-opacity:0;" />
      <stop
         id="stop131"
         offset="1.000000"
         style="stop-color:#ffffff;stop-opacity:1;" />
    </linearGradient>
    <linearGradient
       inkscape:collect="always"
       xlink:href="#linearGradient4362"
       id="linearGradient4368"
       x1="302.52194"
       y1="-127.12684"
       x2="305.20837"
       y2="161.27742"
       gradientUnits="userSpaceOnUse" />
    <linearGradient
       inkscape:collect="always"
       xlink:href="#linearGradient1982"
       id="linearGradient5105"
       gradientUnits="userSpaceOnUse"
       x1="301.65717"
       y1="-173.82478"
       x2="302.61404"
       y2="15.130164" />
    <linearGradient
       inkscape:collect="always"
       xlink:href="#linearGradient1806"
       id="linearGradient5109"
       gradientUnits="userSpaceOnUse"
       x1="301.65717"
       y1="-173.82478"
       x2="303.47882"
       y2="-47.998531"
       gradientTransform="matrix(1.000000,0.000000,0.000000,-1.000000,2.424152,20.70460)" />
    <radialGradient
       inkscape:collect="always"
       xlink:href="#linearGradient1806"
       id="radialGradient6625"
       gradientUnits="userSpaceOnUse"
       cx="43.218342"
       cy="39.022774"
       fx="43.218342"
       fy="39.022774"
       r="9.8527928"
       gradientTransform="matrix(5.323006,1.858785e-2,-1.002980e-2,2.821640,-154.1068,-5.189418)" />
    <linearGradient
       inkscape:collect="always"
       xlink:href="#linearGradient1982"
       id="linearGradient7508"
       gradientUnits="userSpaceOnUse"
       gradientTransform="matrix(0.397035,-0.324024,0.350342,0.429284,-14.92697,79.68474)"
       x1="45.023643"
       y1="20.534979"
       x2="181.64224"
       y2="116.28294" />
    <linearGradient
       inkscape:collect="always"
       xlink:href="#linearGradient1990"
       id="linearGradient7510"
       gradientUnits="userSpaceOnUse"
       gradientTransform="matrix(0.408016,-0.332985,0.340914,0.417732,-19.04691,75.55454)"
       x1="15.407324"
       y1="95.111565"
       x2="63.321236"
       y2="134.37825" />
    <linearGradient
       inkscape:collect="always"
       xlink:href="#linearGradient1908"
       id="linearGradient7512"
       gradientUnits="userSpaceOnUse"
       gradientTransform="matrix(0.498487,-0.341512,0.265601,0.387683,-95.09280,-43.49811)"
       x1="68.265486"
       y1="370.90508"
       x2="28.057237"
       y2="332.33321" />
    <linearGradient
       inkscape:collect="always"
       xlink:href="#linearGradient8260"
       id="linearGradient7514"
       gradientUnits="userSpaceOnUse"
       gradientTransform="matrix(0.416150,-0.285103,0.318151,0.464388,-95.09284,-43.49811)"
       x1="104.84399"
       y1="321.39783"
       x2="28.429239"
       y2="277.92343" />
    <linearGradient
       inkscape:collect="always"
       xlink:href="#linearGradient1908"
       id="linearGradient7516"
       gradientUnits="userSpaceOnUse"
       gradientTransform="matrix(0.520724,-0.356746,0.254259,0.371128,-95.09280,-43.49811)"
       x1="78.753585"
       y1="397.89075"
       x2="26.172458"
       y2="351.19707" />
    <linearGradient
       inkscape:collect="always"
       xlink:href="#linearGradient1918"
       id="linearGradient7518"
       gradientUnits="userSpaceOnUse"
       gradientTransform="scale(1.598611,0.625543)"
       x1="17.123569"
       y1="11.663693"
       x2="26.262699"
       y2="12.402272" />
    <linearGradient
       inkscape:collect="always"
       xlink:href="#linearGradient1954"
       id="linearGradient7520"
       gradientUnits="userSpaceOnUse"
       gradientTransform="matrix(0.542362,-0.371570,0.244115,0.356322,-95.09280,-43.49811)"
       x1="49.627894"
       y1="396.80029"
       x2="68.691985"
       y2="424.20239" />
    <linearGradient
       inkscape:collect="always"
       xlink:href="#linearGradient1982"
       id="linearGradient7522"
       gradientUnits="userSpaceOnUse"
       gradientTransform="matrix(0.347100,-0.237797,0.381442,0.556771,-95.09280,-43.49811)"
       x1="76.440939"
       y1="246.53215"
       x2="99.764216"
       y2="262.38469" />
    <linearGradient
       inkscape:collect="always"
       xlink:href="#linearGradient1982"
       id="linearGradient7524"
       gradientUnits="userSpaceOnUse"
       gradientTransform="matrix(0.685994,-0.351923,0.344202,0.376215,-139.1079,-43.49811)"
       x1="101.15012"
       y1="378.20698"
       x2="83.709572"
       y2="352.44402" />
    <linearGradient
       inkscape:collect="always"
       xlink:href="#linearGradient1982"
       id="linearGradient7526"
       gradientUnits="userSpaceOnUse"
       gradientTransform="matrix(0.378793,-0.309136,0.367215,0.449958,-19.04691,75.55454)"
       x1="48.353673"
       y1="99.757841"
       x2="51.658587"
       y2="103.12432" />
    <linearGradient
       inkscape:collect="always"
       xlink:href="#linearGradient1982"
       id="linearGradient7528"
       gradientUnits="userSpaceOnUse"
       gradientTransform="matrix(0.428327,-0.391499,0.330141,0.361198,-112.4539,-23.60448)"
       x1="23.057706"
       y1="411.51218"
       x2="21.619641"
       y2="422.44497" />
    <linearGradient
       inkscape:collect="always"
       xlink:href="#linearGradient1982"
       id="linearGradient7530"
       gradientUnits="userSpaceOnUse"
       gradientTransform="matrix(0.380358,-0.347654,0.371777,0.406750,-112.4539,-23.60448)"
       x1="41.803414"
       y1="372.34343"
       x2="34.710554"
       y2="376.63461" />
    <linearGradient
       inkscape:collect="always"
       xlink:href="#linearGradient1990"
       id="linearGradient7532"
       gradientUnits="userSpaceOnUse"
       gradientTransform="matrix(0.404531,-0.439777,0.349754,0.321722,-124.1242,-9.718696)"
       x1="27.254147"
       y1="436.18505"
       x2="21.609067"
       y2="441.86894" />
    <radialGradient
       inkscape:collect="always"
       xlink:href="#linearGradient1806"
       id="radialGradient1411"
       gradientUnits="userSpaceOnUse"
       gradientTransform="matrix(4.407855,-4.404365e-2,1.033417e-2,1.576063,-129.2112,48.79746)"
       cx="39.296013"
       cy="41.122543"
       fx="39.296013"
       fy="41.122543"
       r="9.8527928" />
  </defs>
  <sodipodi:namedview
     bordercolor="#000000"
     borderopacity="1.0000000"
     id="base"
     inkscape:cx="64.000000"
     inkscape:cy="64.000000"
     inkscape:pageopacity="0.0000000"
     inkscape:pageshadow="2"
     inkscape:window-height="679"
     inkscape:window-width="1024"
     inkscape:window-x="0"
     inkscape:window-y="33"
     inkscape:zoom="0.97460938"
     pagecolor="#ffffff"
     showborder="true"
     inkscape:current-layer="svg1858" />
  <path
     style="fill:url(#radialGradient6625);fill-opacity:1.0000000;fill-rule:evenodd;stroke:none;stroke-width:0.31194815;stroke-miterlimit:4.0000000;stroke-opacity:1.0000000;opacity:0.40000000"
     d="M 127.99983,127.92029 L -0.16006102,127.92029 L -0.16006102,77.921020 L 127.99983,77.921020 L 127.99983,127.92029 z "
     id="path1976"
     sodipodi:nodetypes="ccccc" />
  <g
     id="g6567"
     transform="matrix(0.291837,0.000000,0.000000,0.291837,-15.03307,51.23647)">
    <path
       id="path5837"
       d="M 427.15625,-167.00000 C 418.93581,-166.61066 409.86147,-164.97634 400.00000,-162.12500 C 386.75667,-158.29585 372.49564,-151.88046 356.68750,-144.28125 C 343.34969,-137.86956 338.89180,-135.24695 337.65625,-134.50000 L 311.00000,-135.03125 C 278.10999,-135.70325 256.68412,-131.23200 229.62500,-118.06250 C 206.06834,-106.59763 182.07010,-82.350861 168.96875,-57.062500 C 159.71477,-39.200367 152.37500,-12.976308 152.37500,3.4687500 C 152.37500,5.2157170 152.25332,6.4275488 152.71875,8.2187500 C 152.95146,9.1143506 153.52036,10.846526 155.62500,11.625000 C 157.72964,12.403474 159.31614,11.493549 160.12500,10.937500 C 161.74271,9.8254016 162.66445,8.5727132 164.28125,6.5625000 C 165.89805,4.5522868 167.96059,1.8521589 170.68750,-1.7500000 C 191.42657,-29.145684 218.77085,-54.130131 249.87500,-74.281250 C 244.66538,-69.293504 239.24967,-63.985188 233.50000,-57.968750 C 219.47214,-43.290031 205.26042,-26.990545 196.96875,-15.375000 C 157.91854,39.329220 134.92914,96.574703 137.56250,136.06250 C 137.88291,140.86709 138.57034,145.94281 139.43750,150.37500 C 140.30466,154.80719 141.19373,158.41766 142.59375,161.12500 C 148.19575,171.95808 158.60452,181.88022 168.75000,185.12500 C 193.19202,192.94221 227.44216,183.86433 266.62500,161.03125 L 280.18750,153.12500 L 308.96875,152.96875 C 343.37520,152.79725 365.56233,148.34105 388.18750,136.84375 C 406.98823,127.28991 426.83518,111.80130 436.68750,98.562500 C 440.52453,93.406609 446.67768,82.621946 452.15625,72.312500 C 454.89554,67.157777 457.41375,62.174450 459.28125,58.187500 C 460.21500,56.194025 460.99575,54.479496 461.56250,53.031250 C 462.12925,51.583004 462.62501,50.957600 462.62500,48.843750 C 462.62500,47.660092 462.07239,46.665790 461.62500,46.156250 C 461.17761,45.646710 460.80280,45.435855 460.53125,45.281250 C 459.98815,44.972040 459.69482,44.916902 459.43750,44.843750 C 458.92285,44.697446 458.56126,44.655341 458.12500,44.593750 C 457.25249,44.470567 456.19552,44.373689 454.84375,44.281250 C 452.14021,44.096372 448.36543,43.916741 443.68750,43.781250 C 434.33165,43.510267 421.48134,43.341591 407.34375,43.343750 L 356.03125,43.375000 C 354.49462,43.382081 353.09785,44.268723 352.43750,45.656250 L 346.90625,57.218750 C 343.76220,63.813324 340.54040,67.871284 336.18750,70.656250 C 331.83460,73.441216 326.04906,75.071377 317.53125,75.843750 C 290.91628,78.257107 270.73844,60.805156 270.68750,35.781250 L 270.68750,33.718750 L 363.21875,33.187500 L 459.75000,32.593750 C 460.82185,32.585562 461.84557,32.147576 462.59166,31.377986 C 463.33775,30.608396 463.74379,29.571585 463.71875,28.500000 L 463.15625,6.4375000 C 462.13886,-33.559959 449.34464,-64.646648 422.84375,-91.218750 C 406.93488,-107.17037 381.75782,-122.17399 364.59375,-126.96875 C 368.07767,-129.03491 372.56439,-131.49145 377.84375,-134.09375 C 402.55645,-146.27511 416.97356,-149.56340 433.68750,-148.96875 C 442.91182,-148.64057 448.42491,-146.76566 452.65625,-141.28125 C 456.89727,-135.78431 459.02232,-130.61485 459.34375,-117.25000 C 459.57271,-107.72988 458.49177,-98.219163 456.65625,-89.250000 C 456.32591,-87.555847 457.11944,-85.840857 458.62459,-84.995986 C 460.12974,-84.151115 462.00705,-84.366904 463.28125,-85.531250 C 465.77118,-87.855433 466.54418,-90.567447 467.71875,-94.218750 C 468.89332,-97.870053 469.96635,-102.29481 470.84375,-106.93750 C 472.59856,-116.22288 473.68673,-126.05536 472.68750,-132.71875 C 471.23336,-142.41561 467.49373,-152.13278 460.53125,-157.96875 C 453.98681,-163.45432 445.28263,-166.36363 435.09375,-166.96875 C 432.54653,-167.12003 429.89640,-167.12978 427.15625,-167.00000 z M 427.53125,-159.00000 C 430.00991,-159.11933 432.38773,-159.13287 434.62500,-159.00000 C 443.57407,-158.46851 450.46535,-155.98522 455.40625,-151.84375 C 458.06898,-149.61184 460.32357,-145.78051 462.06250,-141.37500 C 461.13422,-143.06310 460.12366,-144.65932 458.96875,-146.15625 C 453.08161,-153.78681 444.33901,-156.59981 433.96875,-156.96875 C 415.98397,-157.60861 399.63726,-153.73306 374.31250,-141.25000 C 368.67597,-138.47165 363.80928,-135.83165 360.06250,-133.59375 C 356.31572,-131.35585 353.91541,-129.80463 352.21875,-128.12500 C 351.15576,-127.06782 350.77309,-125.50504 351.22738,-124.07633 C 351.68166,-122.64763 352.89665,-121.59285 354.37500,-121.34375 C 356.26935,-121.03173 357.74506,-120.50762 360.93750,-119.71875 C 375.32870,-116.16261 402.08174,-100.70885 417.18750,-85.562500 C 442.42072,-60.261475 454.17866,-31.807621 455.15625,6.6250000 L 455.62500,24.625000 L 363.18750,25.187500 L 266.65625,25.750000 C 264.45942,25.767381 262.68765,27.553097 262.68750,29.750000 L 262.68750,35.812500 C 262.74742,65.244353 287.68577,86.583963 318.25000,83.812500 C 327.44192,82.979001 334.63081,81.130088 340.50000,77.375000 C 346.36919,73.619912 350.59765,68.054787 354.12500,60.656250 L 358.56250,51.375000 L 407.34375,51.343750 C 421.41781,51.341600 434.19930,51.513675 443.43750,51.781250 C 447.57850,51.901190 450.71561,52.036052 453.18750,52.187500 C 452.81436,53.045903 452.52630,53.755621 452.03125,54.812500 C 450.25366,58.607511 447.78622,63.495867 445.09375,68.562500 C 439.70880,78.695767 433.27261,89.719701 430.25000,93.781250 C 421.75000,105.20291 402.22243,120.74463 384.56250,129.71875 C 363.05161,140.64981 342.65318,144.80053 308.90625,144.96875 L 279.06250,145.12500 C 278.35793,145.13309 277.66799,145.32714 277.06250,145.68750 L 276.03125,146.28125 C 276.11955,144.43460 274.93096,142.76799 273.15625,142.25000 L 256.68750,137.46875 C 233.13542,130.63730 219.56794,122.50554 200.18750,103.50000 C 195.36497,98.770770 190.94604,94.539904 187.65625,91.500000 C 186.01135,89.980048 184.64325,88.742367 183.62500,87.875000 C 183.11587,87.441317 182.70314,87.120610 182.28125,86.812500 C 182.07031,86.658445 181.90880,86.497179 181.50000,86.281250 C 181.29560,86.173285 181.07748,86.051958 180.43750,85.906250 C 180.11751,85.833396 179.66633,85.737652 178.93750,85.843750 C 178.20867,85.949848 177.08992,86.417231 176.37500,87.312500 C 175.76585,88.075306 175.88729,88.060331 175.81250,88.218750 C 175.73771,88.377169 175.65532,88.509210 175.59375,88.656250 C 175.47060,88.950329 175.34851,89.299796 175.18750,89.718750 C 174.86548,90.556658 174.43292,91.697433 173.93750,93.062500 C 172.94666,95.792634 171.68134,99.446142 170.31250,103.40625 C 167.09632,112.71080 164.97690,122.82824 164.12500,131.90625 C 163.27310,140.98426 163.46692,148.85560 165.84375,154.59375 C 169.55928,163.56385 177.71920,169.34279 188.40625,171.43750 C 199.09330,173.53221 212.45480,172.40818 228.46875,168.31250 C 235.16083,166.60096 243.33659,163.60334 250.75000,160.56250 C 217.67567,177.74028 189.55146,183.37329 171.18750,177.50000 C 164.44033,175.34209 154.26453,166.25933 149.71875,157.46875 C 149.20658,156.47832 148.07954,152.92395 147.28125,148.84375 C 146.48296,144.76355 145.85679,139.94421 145.56250,135.53125 C 143.17571,99.740753 165.10886,42.987180 203.46875,-10.750000 C 211.29298,-21.710725 225.43362,-37.947371 239.28125,-52.437500 C 253.12888,-66.927629 267.11816,-79.908963 273.25000,-83.843750 C 277.92776,-86.845456 281.06709,-89.072536 283.06250,-90.781250 C 284.06020,-91.635607 284.76018,-92.061158 285.56250,-93.625000 C 285.76308,-94.015961 285.99422,-94.514971 286.06250,-95.343750 C 286.13078,-96.172529 285.88140,-97.441468 285.15625,-98.343750 C 283.70595,-100.14831 282.21307,-99.993766 281.46875,-99.968750 C 279.98011,-99.918718 279.17208,-99.571062 277.96875,-99.125000 C 276.76542,-98.678938 275.34795,-98.067496 273.68750,-97.281250 C 270.36660,-95.708758 266.06954,-93.415497 260.84375,-90.406250 C 222.64033,-68.406978 189.04500,-39.264640 164.31250,-6.5937500 C 162.72682,-4.4991180 161.80772,-3.3389977 160.65625,-1.8437500 C 162.05129,-16.442120 168.51587,-38.839655 176.06250,-53.406250 C 188.26456,-76.958803 211.69286,-100.44411 233.12500,-110.87500 C 259.35746,-123.64217 278.71724,-127.68765 310.84375,-127.03125 L 338.53125,-126.46875 C 339.32672,-126.44867 340.11010,-126.66628 340.78125,-127.09375 C 340.78125,-127.09375 344.84002,-129.69975 360.15625,-137.06250 C 375.84740,-144.60547 389.79730,-150.84599 402.21875,-154.43750 C 411.60585,-157.15168 420.09528,-158.64202 427.53125,-159.00000 z M 310.59375,-63.531250 C 297.50382,-63.436581 286.70710,-60.303031 278.50000,-53.562500 C 270.29290,-46.821969 264.95704,-36.709219 261.90625,-23.593750 L 260.50000,-17.531250 C 260.22330,-16.341035 260.50575,-15.089625 261.26687,-14.133658 C 262.02799,-13.177691 263.18430,-12.622018 264.40625,-12.625000 L 309.93750,-12.625000 L 355.50000,-12.625000 C 356.66766,-12.629038 357.77526,-13.143040 358.53220,-14.032134 C 359.28913,-14.921229 359.61982,-16.096659 359.43750,-17.250000 L 358.06250,-25.968750 C 356.18351,-37.719387 350.81438,-47.355877 342.56250,-53.843750 C 334.31062,-60.331623 323.34053,-63.623436 310.59375,-63.531250 z M 310.65625,-55.531250 C 322.00998,-55.613362 331.04321,-52.737294 337.62500,-47.562500 C 344.20679,-42.387706 348.53767,-34.840852 350.15625,-24.718750 L 350.81250,-20.625000 L 309.93750,-20.625000 L 269.40625,-20.625000 L 269.68750,-21.781250 C 272.47934,-33.783451 277.08596,-42.030119 283.59375,-47.375000 C 290.10154,-52.719881 298.78635,-55.445405 310.65625,-55.531250 z M 181.21875,96.468750 C 181.59937,96.815668 181.79429,96.982781 182.21875,97.375000 C 185.42010,100.33318 189.81735,104.53475 194.59375,109.21875 C 214.51903,128.75859 230.02721,138.06681 254.46875,145.15625 L 261.15625,147.09375 L 256.28125,149.56250 C 249.07461,153.20040 235.25203,158.32412 226.50000,160.56250 C 211.19440,164.47702 198.80073,165.33098 189.93750,163.59375 C 181.07427,161.85652 175.91302,157.96037 173.25000,151.53125 C 171.94621,148.38362 171.30565,141.05440 172.09375,132.65625 C 172.88185,124.25810 174.86308,114.65447 177.84375,106.03125 C 179.10982,102.36844 180.27496,99.080948 181.21875,96.468750 z "
       style="fill:#002477;fill-opacity:1.0000000;stroke:none;stroke-width:8.0000000;stroke-linecap:round;stroke-linejoin:round;stroke-miterlimit:4.0000000;stroke-dasharray:none;stroke-opacity:1.0000000" />
    <path
       sodipodi:nodetypes="csssssssssccssssscsssscsscccccscccsssccccccccssssccsccccc"
       id="path2898"
       d="M 169.95483,181.32310 C 161.50851,178.62176 151.22545,169.10462 146.15156,159.29279 C 144.23937,155.59501 142.17191,145.02791 141.55721,135.81036 C 139.04713,98.171217 161.51230,41.156456 200.21735,-13.064244 C 216.33325,-35.640514 256.96842,-78.161061 271.08414,-87.219090 C 289.47848,-99.022706 283.45264,-98.820182 262.82438,-86.941485 C 225.06707,-65.199105 191.85987,-36.370854 167.48917,-4.1778939 C 156.58881,10.221146 156.37567,10.367666 156.37567,3.4621061 C 156.37567,-11.708434 163.62634,-38.072704 172.51928,-55.237954 C 185.17099,-79.658410 208.89176,-103.52916 231.38616,-114.47704 C 258.03194,-127.44538 278.41735,-131.68558 310.92561,-131.02138 L 338.61958,-130.45554 C 338.61958,-130.45554 343.01602,-133.27720 358.42200,-140.68309 C 374.17164,-148.25418 388.27821,-154.56351 401.11060,-158.27384 C 413.94298,-161.98418 425.28440,-163.54683 434.85338,-162.97852 C 444.42237,-162.41021 452.21893,-159.71094 457.96160,-154.89742 C 463.70427,-150.08390 467.39305,-141.15613 468.74648,-132.13083 C 470.40364,-121.08008 464.93308,-92.530087 460.56734,-88.454965 C 462.45186,-97.663501 463.57962,-107.46985 463.34182,-117.35742 C 463.00936,-131.18102 460.47310,-137.67074 455.81428,-143.70921 C 450.75503,-150.26670 443.61518,-152.62981 433.81789,-152.97837 C 416.46854,-153.59562 401.10288,-150.00040 376.08415,-137.66819 C 364.99148,-132.20040 356.95621,-127.19979 355.03299,-125.29587 C 357.27517,-124.92656 358.83323,-124.36549 361.88491,-123.61140 C 377.65962,-119.71338 404.25710,-104.19592 420.02688,-88.383762 C 445.89394,-62.447195 458.16826,-32.679654 459.16575,6.5353861 L 459.72691,28.597296 L 363.20606,29.172036 L 266.68521,29.746776 L 266.69752,35.790606 C 266.75294,63.018487 289.29612,82.406197 317.88572,79.813787 C 335.59545,78.207917 343.84907,72.927297 350.52047,58.934186 L 356.03594,47.365616 L 407.32988,47.357766 C 435.54155,47.353456 458.62382,48.022006 458.62382,48.843446 C 458.62382,52.534296 440.32660,86.965577 433.46696,96.183017 C 424.29079,108.51324 404.61834,124.01363 386.38801,133.27761 C 364.31997,144.49178 343.01268,148.81210 308.93599,148.98196 L 279.08217,149.13079 L 264.61047,157.56391 C 225.92142,180.10924 192.43797,188.51381 169.95483,181.32310 z M 227.48906,164.42838 C 236.65450,162.08426 250.42786,156.99906 258.09651,153.12794 L 272.03952,146.08953 L 255.57367,141.31350 C 231.57686,134.35306 217.04783,125.62122 197.39497,106.34853 C 187.79604,96.935307 179.73807,89.489407 179.48837,89.802097 C 179.23866,90.114797 176.80380,96.823757 174.07756,104.71090 C 167.88071,122.63867 165.85884,144.18420 169.53946,153.06998 C 175.91801,168.46920 196.16951,172.43858 227.48906,164.42838 z M 354.10362,-25.342004 C 350.60603,-47.214744 334.73774,-59.690857 310.63723,-59.516559 C 285.67741,-59.336046 271.64884,-47.814314 265.80621,-22.696644 L 264.39496,-16.629614 L 309.94587,-16.629614 L 355.49679,-16.629614 L 354.10362,-25.342004 z "
       style="fill:url(#linearGradient4368);fill-opacity:1.0000000;stroke:none;stroke-width:3.0000000;stroke-linecap:round;stroke-linejoin:round;stroke-miterlimit:4.0000000;stroke-dasharray:none;stroke-opacity:1.0000000" />
    <path
       sodipodi:nodetypes="ccccccsc"
       id="path4370"
       d="M 288.75000,-128.56250 C 252.61408,-125.93337 217.10587,-109.69435 193.50195,-81.841423 C 187.61834,-75.136915 182.19863,-67.974379 177.71875,-60.250000 C 224.84291,-94.585828 286.16948,-107.38308 343.40245,-97.610240 C 379.85918,-91.492355 414.98517,-76.242999 443.53125,-52.625000 C 427.72627,-84.701554 397.84632,-108.47410 364.63579,-120.67362 C 351.86258,-124.75053 339.45065,-128.23682 325.40897,-128.73491 C 313.21454,-129.16748 300.95863,-129.34480 288.75000,-128.56250 z "
       style="fill:url(#linearGradient5105);fill-opacity:1.0000000;stroke:none;stroke-width:3.0000000;stroke-linecap:round;stroke-linejoin:round;stroke-miterlimit:4.0000000;stroke-dasharray:none;stroke-opacity:1.0000000" />
    <path
       sodipodi:nodetypes="ccccccsc"
       id="path5107"
       d="M 291.17415,149.26711 C 255.03823,146.63798 219.53002,130.39896 195.92610,102.54603 C 190.04249,95.841511 184.62278,92.678971 180.14290,84.954603 C 227.26706,119.29043 288.59363,128.08769 345.82660,118.31485 C 382.28333,112.19696 417.40932,96.947591 445.95540,73.329603 C 430.15042,105.40616 400.27047,129.17871 367.05994,141.37823 C 354.28673,145.45514 341.87480,148.94143 327.83312,149.43952 C 315.63869,149.87209 303.38278,150.04941 291.17415,149.26711 z "
       style="fill:url(#linearGradient5109);fill-opacity:1.0000000;stroke:none;stroke-width:3.0000000;stroke-linecap:round;stroke-linejoin:round;stroke-miterlimit:4.0000000;stroke-dasharray:none;stroke-opacity:1.0000000" />
  </g>
  <g
     id="g7493"
     transform="matrix(1.196819,0.690984,-0.690984,1.196819,57.17256,-49.53655)">
    <path
       d="M 20.110012,64.355494 C 20.508099,67.670748 21.812411,73.847829 24.801699,77.797516 C 27.771550,81.721522 35.833289,93.431299 36.706133,93.524579 L 38.786574,93.746919 C 39.711870,93.845809 44.932086,83.944817 47.553912,78.517817 L 55.048079,63.005405 C 52.632224,65.169453 41.830788,65.982314 37.198564,66.123357 C 32.566334,66.264398 25.099620,66.288484 20.110012,64.355494 z "
       id="path1056"
       sodipodi:nodetypes="czzzzczc"
       style="fill:url(#linearGradient7508);fill-opacity:1.0000000;fill-rule:evenodd;stroke-width:0.75000000" />
    <path
       d="M 38.672415,93.614300 L 39.222731,112.94505 L 40.821053,114.14739 L 51.151188,117.39922 C 55.316294,118.71036 40.338158,121.02493 36.418314,121.16772 C 32.498468,121.31050 17.503319,118.69400 21.268172,117.71000 L 36.051504,113.84617 L 36.307825,93.361951 L 38.672415,93.614300 z "
       id="path3076"
       sodipodi:nodetypes="ccczzzccc"
       style="fill:url(#linearGradient7510);fill-opacity:1.0000000;fill-rule:evenodd;stroke-width:1.0000000pt" />
    <path
       style="fill:url(#linearGradient7512);fill-rule:evenodd;stroke-width:1.0000000pt"
       sodipodi:nodetypes="czzccccc"
       id="path3075"
       d="M 35.509060,90.972475 L 28.410411,84.145106 C 26.596093,82.400124 22.098187,78.078833 24.337263,76.544849 C 26.769861,74.878284 32.954421,71.821875 36.394636,69.464995 C 39.834851,67.108115 50.456652,66.386457 50.456652,66.386457 L 47.849788,79.782122 C 47.849788,79.782122 39.206672,89.913602 37.576842,90.608949 C 35.947012,91.304296 35.509060,90.972475 35.509060,90.972475 z " />
    <path
       style="fill:url(#linearGradient7514);fill-opacity:1.0;fill-rule:evenodd;stroke-width:0.75000000"
       sodipodi:nodetypes="czzzzzzz"
       id="path3077"
       d="M 17.613881,62.577445 L 19.441848,77.542934 C 19.929044,81.531590 35.426418,93.585170 36.297277,93.695480 L 38.372984,93.958390 C 39.296175,94.075320 52.032193,84.764700 53.435931,78.903305 L 57.418497,62.273874 C 58.075510,59.530491 48.579797,57.545773 38.486680,57.596365 C 28.211596,57.646957 17.238732,59.506110 17.613881,62.577445 z " />
    <path
       style="fill:url(#linearGradient7516);fill-rule:evenodd;stroke-width:1.0000000pt"
       sodipodi:nodetypes="czzccscc"
       id="path3078"
       d="M 36.273501,91.816178 L 27.901082,84.442905 C 26.011942,82.779211 21.962317,77.428270 25.101706,77.388551 C 28.202392,77.349321 33.844343,77.196490 37.284559,74.839609 C 40.724774,72.482729 53.234489,62.901970 53.487644,66.749687 C 53.487644,66.749687 52.554009,76.513408 50.432261,80.443861 C 48.471604,84.075899 43.428487,89.483536 38.341283,91.452652 C 36.711453,92.147999 36.273501,91.816178 36.273501,91.816178 z " />
    <path
       transform="matrix(2.454150,-7.556417e-2,-8.176080e-2,1.196060,-46.70430,56.07388)"
       style="fill:url(#linearGradient7518);fill-opacity:1.0000000;fill-rule:evenodd;stroke-width:1.4922816"
       sodipodi:type="arc"
       sodipodi:ry="2.8553233"
       sodipodi:rx="7.2969375"
       sodipodi:cy="7.7581573"
       sodipodi:cx="34.686890"
       id="path3079"
       d="M 41.983827 7.7581573 A 7.2969375 2.8553233 0 1 1  27.389952,7.7581573 A 7.2969375 2.8553233 0 1 1  41.983827 7.7581573 z" />
    <path
       sodipodi:nodetypes="ccsssc"
       style="fill:url(#linearGradient7520);fill-opacity:1.0000000;fill-rule:evenodd;stroke-width:1.0000000pt"
       id="path3080"
       d="M 31.928413,87.421237 L 25.943969,81.157774 C 25.943969,81.157774 24.896762,79.194446 27.479450,78.616506 C 30.062137,78.038567 38.364019,78.665724 40.091006,75.099661 C 41.817995,71.533603 44.693065,77.904070 42.144001,81.139740 C 39.594942,84.375413 31.928413,87.421237 31.928413,87.421237 z " />
    <path
       sodipodi:nodetypes="csssc"
       style="fill:url(#linearGradient7522);fill-opacity:1.0000000;fill-rule:evenodd;stroke-width:1.0000000pt"
       id="path3081"
       d="M 20.273701,66.362413 C 20.273701,66.362413 20.160572,73.026692 21.710671,77.028394 C 23.260774,81.030100 33.596521,89.821962 34.824027,89.874591 C 36.051535,89.927218 39.093013,66.251762 37.471280,67.362807 C 35.849548,68.473850 20.273701,66.362413 20.273701,66.362413 z " />
    <path
       style="fill:url(#linearGradient7524);fill-opacity:1.0000000;fill-rule:evenodd;stroke-width:1.0000000pt"
       sodipodi:nodetypes="czzz"
       id="path3082"
       d="M 40.913298,59.271952 C 43.055494,59.015987 56.013149,59.684239 54.887634,62.640915 C 53.818858,65.448504 37.763314,66.185542 36.403142,65.651244 C 35.042965,65.116943 38.771105,59.527917 40.913298,59.271952 z " />
    <path
       d="M 36.194899,113.71631 L 36.820613,94.312432 L 38.656195,94.517880 L 39.263393,113.85416 L 36.194899,113.71631 z "
       id="path3085"
       sodipodi:nodetypes="ccccc"
       style="fill:url(#linearGradient7526);fill-rule:evenodd;stroke-width:1.0000000pt" />
    <path
       style="fill:url(#linearGradient7528);fill-opacity:1.0000000;fill-rule:evenodd;stroke-width:1.0000000pt"
       sodipodi:nodetypes="czzzzz"
       id="path3083"
       d="M 34.985869,114.66694 C 33.601371,114.93601 23.525803,118.09557 24.195597,118.69960 C 24.865391,119.30363 31.273499,120.63971 34.101995,120.65361 C 37.175999,120.66872 41.884215,119.89632 42.899215,119.20400 C 43.914216,118.51167 41.504140,113.29943 39.705114,113.64907 C 37.906090,113.99870 36.370370,114.39786 34.985869,114.66694 z " />
    <path
       style="fill:url(#linearGradient7530);fill-opacity:1.0000000;fill-rule:evenodd;stroke-width:1.0000000pt"
       id="path3084"
       d="M 38.189907,113.90119 C 38.189907,113.90119 39.964698,113.11127 43.011160,114.98743 C 46.057627,116.86359 48.389261,117.22923 46.969431,117.86117 C 45.549599,118.49311 37.069599,121.41684 37.095876,118.89602 C 37.122151,116.37521 34.852898,114.62093 38.189907,113.90119 z " />
    <path
       style="fill:url(#linearGradient7532);fill-opacity:1.0000000;fill-rule:evenodd;stroke-width:1.0000000pt"
       sodipodi:nodetypes="cccc"
       id="path3086"
       d="M 32.543058,120.51453 C 32.543058,120.51453 36.726558,114.68325 40.647195,115.81076 C 44.567836,116.93828 52.384797,117.10838 51.438615,118.00867 C 50.492437,118.90897 35.197815,122.24826 32.543058,120.51453 z " />
  </g>
  <path
     sodipodi:nodetypes="ccccc"
     id="path1409"
     d="M 103.88761,127.92029 L -0.16006102,127.92029 L -0.16006102,77.921020 L 103.88761,77.921020 L 103.88761,127.92029 z "
     style="opacity:0.30000000;fill:url(#radialGradient1411);fill-opacity:1.0000000;fill-rule:evenodd;stroke:none;stroke-width:0.31194815;stroke-miterlimit:4.0000000;stroke-opacity:1.0000000" />
</svg>
