P3
80 80
255
0
0
0
0
0
0
0
0
0
0
0
0
0
0
0
0
0
0
0
0
0
0
0
0
0
0
0
0
0
0
0
0
0
0
2
0
0
2
0
0
2
0
0
2
0
0
2
0
0
2
0
0
2
0
0
2
0
0
2
0
0
2
0
0
2
0
0
2
0
0
2
0
0
2
0
0
2
0
0
2
0
0
2
0
0
2
0
0
2
0
0
2
0
0
2
0
0
2
0
0
2
0
0
2
0
0
2
0
0
2
0
0
2
0
0
2
0
0
2
0
0
2
0
0
2
0
0
2
0
0
2
0
0
2
0
0
2
0
0
2
0
0
2
0
0
2
0
0
2
0
0
2
0
0
2
0
0
2
0
0
2
0
0
2
0
0
2
0
0
2
0
0
2
0
0
2
0
0
2
0
0
2
0
0
2
0
0
2
0
0
2
0
0
2
0
0
2
0
0
2
0
0
2
0
0
2
0
0
0
0
0
0
0
0
0
0
0
0
0
0
0
0
0
0
0
0
0
0
0
0
0
0
0
0
0
0
0
0
0
0
0
0
0
0
0
0
0
0
0
0
0
0
0
0
0
0
0
0
0
0
0
0
0
0
0
0
0
0
0
0
0
0
0
0
2
0
0
2
0
0
2
0
0
2
0
0
2
0
0
2
0
0
2
0
0
2
0
0
2
0
0
2
0
0
2
0
0
2
0
0
2
0
0
2
0
0
2
0
0
2
0
0
2
0
0
2
0
0
2
0
0
2
0
0
2
0
0
2
0
0
2
0
0
2
0
0
2
0
0
2
0
0
2
0
0
2
0
0
2
0
0
2
0
0
2
0
0
2
0
0
2
0
0
2
0
0
2
0
0
2
0
0
2
0
0
2
0
0
2
0
0
2
0
0
2
0
0
2
0
0
2
0
0
2
0
0
2
0
0
2
0
0
2
0
0
2
0
0
2
0
0
2
0
0
2
0
0
2
0
0
2
0
0
2
0
0
2
0
0
2
0
0
2
0
0
2
0
0
0
0
0
0
0
0
0
0
0
0
0
0
0
0
0
0
0
0
0
0
0
0
0
0
0
0
0
0
0
0
0
0
0
0
0
0
0
0
0
0
0
0
0
0
0
0
0
0
0
0
0
0
0
0
0
0
0
0
0
0
0
0
0
0
0
0
0
0
0
2
0
0
2
0
0
2
0
0
2
0
0
2
0
0
2
0
0
2
0
0
2
0
0
2
0
0
2
0
0
2
0
0
2
0
0
2
0
0
2
0
0
2
0
0
2
0
0
2
0
0
2
0
0
2
0
0
2
0
0
2
0
0
2
0
0
2
0
0
2
0
0
2
0
0
2
0
0
2
0
0
2
0
0
2
0
0
2
0
0
2
0
0
2
0
0
2
0
0
2
0
0
2
0
0
2
0
0
2
0
0
2
0
0
2
0
0
2
0
0
2
0
0
2
0
0
2
0
0
2
0
0
2
0
0
2
0
0
2
0
0
2
0
0
2
0
0
2
0
0
2
0
0
2
0
0
2
0
0
2
0
0
2
0
0
2
0
0
2
0
0
2
0
0
0
0
0
0
0
0
0
0
0
0
0
0
0
0
0
0
0
0
0
0
0
0
0
0
0
0
0
0
0
0
0
0
0
0
0
0
0
0
0
0
0
0
0
0
0
0
0
0
0
0
0
0
0
0
0
0
0
0
0
0
0
0
0
0
0
0
2
0
0
2
0
0
2
0
0
2
0
0
2
0
0
2
0
0
2
0
0
2
0
0
2
0
0
2
0
0
2
0
0
2
0
0
2
0
0
2
0
0
2
0
0
2
0
0
2
0
0
2
0
0
2
0
0
2
0
0
2
0
0
2
0
0
2
0
0
2
0
0
2
0
0
2
0
0
2
0
0
2
0
0
2
0
0
2
0
0
2
0
0
2
0
0
2
0
0
2
0
0
2
0
0
2
0
0
2
0
0
2
0
0
2
0
0
2
0
0
2
0
0
2
0
0
2
0
0
2
0
0
2
0
0
2
0
0
2
0
0
2
0
0
2
0
0
2
0
0
2
0
0
2
0
0
2
0
0
2
0
0
2
0
0
2
0
0
2
0
0
2
0
0
2
0
0
0
0
0
0
0
0
0
0
0
0
0
0
0
0
0
0
0
0
0
0
0
0
0
0
0
0
0
0
0
0
0
0
0
0
0
0
0
0
0
0
0
0
0
0
0
0
0
0
0
0
0
0
0
0
0
0
0
0
0
0
0
0
0
2
0
0
2
0
0
2
0
0
2
0
0
2
0
0
2
0
0
2
0
0
2
0
0
2
0
0
2
0
0
2
0
0
2
0
0
2
0
0
2
0
0
2
0
0
2
0
0
2
0
0
2
0
0
2
0
0
2
0
0
2
0
0
2
0
0
2
0
0
2
0
0
2
0
0
2
0
0
2
0
0
2
0
0
2
0
0
2
0
0
2
0
0
2
0
0
2
0
0
2
0
0
2
0
0
2
0
0
2
0
0
2
0
0
2
0
0
2
0
0
2
0
0
2
0
0
2
0
0
2
0
0
2
0
0
2
0
0
2
0
0
2
0
0
2
0
0
2
0
0
2
0
0
2
0
0
2
0
0
2
0
0
2
0
0
2
0
0
2
0
0
2
0
0
2
0
0
2
0
0
0
0
0
0
0
0
0
0
0
0
0
0
0
0
0
0
0
0
0
0
0
0
0
0
0
0
0
0
0
0
0
0
0
0
0
0
0
0
0
0
0
0
0
0
0
0
0
0
0
0
0
0
0
0
0
0
0
0
0
0
2
0
0
2
0
0
2
0
0
2
0
0
2
0
0
2
0
0
2
0
0
2
0
0
2
0
0
2
0
0
2
0
0
2
0
0
2
0
0
2
0
0
2
0
0
2
0
0
2
0
0
2
0
0
2
0
0
2
0
0
2
0
0
2
0
0
2
0
0
2
0
0
2
0
0
2
0
0
2
0
0
2
0
0
2
0
0
2
0
0
2
0
0
2
0
0
2
0
0
2
0
0
2
0
0
2
0
0
2
0
0
2
0
0
2
0
0
2
0
0
2
0
0
2
0
0
2
0
0
2
0
0
2
0
0
2
0
0
2
0
0
2
0
0
2
0
0
2
0
0
2
0
0
2
0
0
2
0
0
2
0
0
2
0
0
2
0
0
2
0
0
2
0
0
2
0
0
2
0
0
2
0
0
2
0
0
0
0
0
0
0
0
0
0
0
0
0
0
0
0
0
0
0
0
0
0
0
0
0
0
0
0
0
0
0
0
0
0
0
0
0
0
0
0
0
0
0
0
0
0
0
0
0
0
0
0
0
0
0
0
2
0
0
2
0
0
2
0
0
2
0
0
2
0
0
2
0
0
2
0
0
2
0
0
2
0
0
2
0
0
2
0
0
2
0
0
2
0
0
2
0
0
2
0
0
2
0
0
2
0
0
2
0
0
2
0
0
2
0
0
2
0
0
2
0
0
2
0
0
2
0
0
2
0
0
2
0
0
2
0
0
2
0
0
2
0
0
2
0
0
2
0
0
2
0
0
2
0
5
2
8
5
2
8
0
2
0
0
2
0
0
2
0
0
2
0
0
2
0
0
2
0
0
2
0
0
2
0
0
2
0
0
2
0
0
2
0
0
2
0
0
2
0
0
2
0
0
2
0
0
2
0
0
2
0
0
2
0
0
2
0
0
2
0
0
2
0
0
2
0
0
2
0
0
2
0
0
2
0
0
2
0
0
2
0
0
2
0
0
2
0
0
2
0
0
2
0
0
2
0
0
2
0
0
0
0
0
0
0
0
0
0
0
0
0
0
0
0
0
0
0
0
0
0
0
0
0
0
0
0
0
0
0
0
0
0
0
0
0
0
2
0
0
2
0
0
2
0
0
2
0
0
2
0
0
2
0
0
2
0
0
2
0
0
2
0
0
2
0
0
2
0
0
2
0
0
2
0
0
2
0
0
2
0
0
2
0
0
2
0
0
2
0
0
2
0
0
2
0
0
2
0
0
2
0
0
2
0
0
2
0
0
2
0
0
2
0
0
2
0
0
2
0
0
2
0
0
2
0
5
2
8
7
0
0
7
0
0
0
2
0
0
2
0
9
1
0
7
0
0
7
0
0
7
0
0
5
2
8
0
2
0
0
2
0
0
2
0
0
2
0
0
2
0
0
2
0
0
2
0
0
2
0
0
2
0
0
2
0
0
2
0
0
2
0
0
2
0
0
2
0
0
2
0
0
2
0
0
2
0
0
2
0
0
2
0
0
2
0
0
2
0
0
2
0
0
2
0
0
2
0
0
2
0
0
2
0
0
2
0
0
2
0
0
0
0
0
0
0
0
0
0
0
0
0
0
0
0
0
0
0
0
0
0
0
0
0
0
0
0
0
0
0
0
0
0
0
0
0
0
2
0
0
2
0
0
2
0
0
2
0
0
2
0
0
2
0
0
2
0
0
2
0
0
2
0
0
2
0
0
2
0
0
2
0
0
2
0
0
2
0
0
2
0
0
2
0
0
2
0
0
2
0
0
2
0
0
2
0
0
2
0
0
2
0
0
2
0
0
2
0
0
2
0
0
2
0
0
2
0
5
2
8
5
2
8
0
2
0
3
6
1
3
6
1
12
11
0
10
9
0
3
6
1
3
6
1
3
6
1
3
6
1
0
2
0
7
0
0
5
2
8
0
2
0
0
2
0
0
2
0
0
2
0
0
2
0
0
2
0
0
2
0
0
2
0
0
2
0
0
2
0
0
2
0
0
2
0
0
2
0
0
2
0
0
2
0
0
2
0
0
2
0
0
2
0
0
2
0
0
2
0
0
2
0
0
2
0
0
2
0
0
2
0
0
2
0
0
2
0
0
2
0
0
0
0
0
0
0
0
0
0
0
0
0
0
0
0
0
0
0
0
0
0
0
0
0
0
0
0
0
0
0
0
0
0
0
2
0
0
2
0
0
2
0
0
2
0
0
2
0
0
2
0
0
2
0
0
2
0
0
2
0
0
2
0
0
2
0
0
2
0
0
2
0
0
2
0
0
2
0
0
2
0
0
2
0
0
2
0
0
2
0
0
2
0
0
2
0
0
2
0
0
2
0
0
2
0
0
2
0
0
2
0
0
2
0
0
2
0
0
2
0
0
2
0
3
6
1
3
6
1
3
6
1
0
2
0
12
11
0
6
8
4
6
8
4
6
8
4
3
6
1
12
11
0
3
6
1
0
2
0
5
2
8
5
2
8
0
2
0
0
2
0
0
2
0
0
2
0
0
2
0
0
2
0
0
2
0
0
2
0
0
2
0
0
2
0
0
2
0
0
2
0
0
2
0
0
2
0
0
2
0
0
2
0
0
2
0
0
2
0
0
2
0
0
2
0
0
2
0
0
2
0
0
2
0
0
2
0
0
2
0
0
0
0
0
0
0
0
0
0
0
0
0
0
0
0
0
0
0
0
0
0
0
0
0
0
0
0
0
0
0
0
0
0
7
0
0
7
0
0
7
0
0
7
0
0
7
0
0
7
0
0
7
0
0
7
0
0
7
0
0
7
0
0
7
0
0
7
0
0
7
0
0
7
0
0
7
0
0
7
0
0
7
0
0
7
0
0
7
0
0
7
0
0
7
0
0
7
0
0
7
0
0
7
0
0
7
0
0
7
0
0
7
0
0
0
2
0
0
2
0
9
1
0
3
6
1
6
8
4
12
11
0
12
11
0
12
11
0
14
13
1
14
13
1
12
11
0
6
8
4
3
6
1
3
6
1
0
2
0
0
2
0
0
2
0
0
2
0
0
2
0
0
2
0
0
2
0
0
2
0
0
2
0
0
2
0
0
2
0
0
2
0
0
2
0
0
2
0
0
2
0
0
2
0
0
2
0
0
2
0
0
2
0
0
2
0
0
2
0
0
2
0
0
2
0
0
2
0
0
2
0
0
2
0
0
2
0
0
2
0
0
0
0
0
0
0
0
0
0
0
0
0
0
0
0
0
0
0
0
0
0
0
0
0
0
0
0
0
0
0
7
0
0
7
0
0
7
0
0
7
0
0
7
0
0
7
0
0
7
0
0
7
0
0
7
0
0
7
0
0
7
0
0
7
0
0
7
0
0
7
0
0
7
0
0
7
0
0
7
0
0
7
0
0
7
0
0
7
0
0
7
0
0
7
0
0
7
0
0
7
0
0
7
0
0
7
0
0
7
0
0
0
2
0
7
0
0
3
6
1
6
8
4
12
5
3
12
11
0
14
13
1
14
13
1
17
20
1
17
20
1
17
20
1
15
15
3
14
13
1
12
11
0
6
8
4
12
11
0
3
6
1
7
0
0
5
2
8
0
2
0
0
2
0
0
2
0
0
2
0
0
2
0
0
2
0
0
2
0
0
2
0
0
2
0
0
2
0
0
2
0
0
2
0
0
2
0
0
2
0
0
2
0
0
2
0
0
2
0
0
2
0
0
2
0
0
2
0
0
2
0
0
2
0
0
2
0
0
2
0
0
0
0
0
0
0
0
0
0
0
0
0
0
0
0
0
0
0
0
0
0
0
0
0
0
0
0
7
0
0
7
0
0
7
0
0
7
0
0
7
0
0
7
0
0
7
0
0
7
0
0
7
0
0
7
0
0
7
0
0
7
0
0
7
0
0
7
0
0
7
0
0
7
0
0
7
0
0
7
0
0
7
0
0
7
0
0
7
0
0
7
0
0
7
0
0
7
0
0
7
0
0
7
0
0
7
0
0
7
0
0
3
6
1
9
1
0
12
11
0
12
11
0
12
11
0
19
16
0
17
20
1
19
16
0
14
13
1
14
13
1
17
20
1
12
11
0
14
13
1
14
13
1
6
8
4
9
1
0
3
6
1
0
2
0
0
2
0
7
0
0
7
0
0
7
0
0
7
0
0
7
0
0
7
0
0
0
4
7
0
4
7
0
4
7
0
4
7
0
4
7
0
4
7
0
4
7
0
4
7
0
2
0
0
2
0
0
2
0
0
2
0
0
2
0
0
2
0
0
2
0
0
2
0
0
2
0
0
2
0
0
0
0
0
0
0
0
0
0
0
0
0
0
0
0
0
0
0
0
0
0
0
0
0
7
0
0
7
0
0
9
1
0
9
1
0
9
1
0
9
1
0
9
1
0
9
1
0
9
1
0
9
1
0
9
1
0
9
1
0
9
1
0
9
1
0
9
1
0
9
1
0
9
1
0
9
1
0
9
1
0
9
1
0
9
1
0
9
1
0
16
0
1
9
1
0
9
1
0
7
0
0
7
0
0
7
0
0
3
6
1
7
0
0
3
6
1
3
6
1
12
11
0
19
16
0
17
20
1
27
22
0
69
67
0
160
161
0
167
162
0
155
157
1
160
161
0
47
48
0
14
13
1
12
11
0
12
11
0
3
6
1
3
6
1
7
0
0
7
0
0
7
0
0
7
0
0
7
0
0
7
0
0
0
4
7
0
4
7
0
4
7
0
4
7
0
4
7
0
4
7
0
4
7
0
4
7
0
2
0
0
4
7
0
4
7
0
2
0
0
2
0
0
2
0
0
2
0
0
2
0
0
2
0
0
2
0
0
2
0
0
0
0
0
0
0
0
0
0
0
0
0
0
0
0
0
0
0
9
1
0
9
1
0
16
0
1
16
0
1
16
0
1
16
0
1
22
0
3
22
0
3
22
0
3
22
0
3
22
0
3
22
0
3
22
0
3
22
0
3
22
0
3
22
0
3
22
0
3
22
0
3
22
0
3
22
0
3
22
0
3
22
0
3
22
0
3
16
0
1
16
0
1
16
0
1
16
0
1
16
0
1
9
1
0
17
5
13
7
0
0
9
1
0
18
8
0
12
11
0
12
11
0
19
16
0
25
25
3
22
22
0
160
161
0
253
254
0
253
254
0
253
254
0
232
229
0
37
35
0
19
16
0
12
11
0
6
8
4
10
3
1
3
6
1
7
0
0
7
0
0
7
0
0
7
0
0
7
0
0
7
0
0
7
0
0
5
2
8
7
0
0
5
2
8
5
2
8
5
2
8
7
0
0
5
2
8
0
4
7
0
4
7
0
4
7
0
4
7
0
4
7
0
2
0
0
2
0
0
2
0
0
2
0
0
2
0
0
2
0
7
0
0
7
0
0
7
0
0
7
0
0
7
0
0
9
1
0
16
0
1
16
0
1
22
6
0
22
0
3
29
0
0
29
0
0
22
0
3
22
0
3
22
0
3
29
3
9
29
3
9
29
3
9
29
3
9
29
3
9
29
3
9
29
3
9
29
3
9
29
3
9
29
3
9
29
3
9
29
3
9
29
3
9
22
0
3
25
2
0
29
0
0
25
2
0
25
2
0
22
6
0
25
2
0
22
6
0
16
0
1
22
6
0
10
3
1
18
8
0
19
16
0
32
26
0
27
26
0
42
44
1
219
219
0
253
254
0
253
254
0
253
254
0
160
161
0
27
22
0
22
22
0
19
16
0
18
8
0
18
8
0
10
3
1
9
1
0
5
2
8
5
2
8
5
2
8
0
4
7
5
2
8
5
2
8
5
2
8
0
4
7
0
4
7
0
4
7
0
4
7
0
4
7
0
4
7
5
2
8
7
0
0
7
0
0
0
4
7
0
2
0
0
4
7
0
2
0
0
2
0
0
2
0
0
2
0
0
2
0
7
0
0
5
2
8
7
0
0
7
0
0
16
0
1
16
0
1
16
0
1
22
0
3
25
2
0
29
0
0
29
0
0
33
0
1
37
1
3
37
1
3
38
5
0
38
5
0
38
5
0
38
5
0
38
5
0
38
5
0
38
5
0
38
5
0
38
5
0
38
5
0
38
5
0
38
5
0
38
5
0
37
1
3
37
1
3
33
0
1
33
0
1
33
0
1
33
0
1
29
0
0
29
3
9
22
6
0
22
6
0
22
6
0
18
8
0
24
15
0
19
16
0
33
31
0
27
26
0
93
92
0
253
254
0
253
254
0
253
254
0
253
254
0
86
87
0
27
22
0
27
22
0
19
16
0
18
8
0
22
6
0
12
5
3
18
8
0
16
0
1
9
1
0
16
0
1
7
0
0
9
1
0
5
2
8
5
2
8
6
7
18
6
7
18
6
7
18
6
7
18
0
4
7
0
4
7
0
4
7
0
4
7
5
2
8
5
2
8
0
4
7
0
2
0
0
4
7
0
2
0
0
2
0
0
2
0
0
2
0
7
0
0
7
0
0
7
0
0
9
1
0
16
0
1
22
6
0
41
0
0
47
0
2
52
0
0
52
0
0
56
0
2
60
1
0
60
1
0
60
1
0
60
1
0
56
0
2
60
1
0
56
0
2
60
1
0
56
0
2
60
1
0
56
0
2
60
1
0
56
0
2
60
1
0
60
1
0
60
1
0
60
1
0
60
1
0
60
1
0
60
1
0
60
1
0
56
0
2
52
0
0
52
0
0
47
0
2
38
5
0
22
6
0
28
13
0
24
15
0
32
26
0
33
31
0
33
31
0
167
162
0
253
254
0
255
255
1
253
254
0
227
225
0
51
46
0
32
26
0
27
22
0
24
15
0
18
8
0
22
6
0
22
6
0
16
0
1
16
0
1
16
0
1
7
0
0
16
0
1
5
2
8
8
5
11
8
5
11
6
7
18
0
7
16
0
7
16
0
7
16
4
9
24
6
7
18
6
7
18
5
2
8
0
4
7
0
4
7
7
0
0
5
2
8
0
2
0
0
4
7
0
2
0
0
2
0
0
2
0
7
0
0
7
0
0
7
0
0
16
0
1
16
0
1
38
5
0
216
0
0
239
0
0
239
0
0
239
0
0
239
0
0
239
0
0
239
0
0
233
0
1
239
0
0
233
0
1
239
0
0
233
0
1
239
0
0
233
0
1
239
0
0
233
0
1
239
0
0
233
0
1
233
0
1
233
0
1
239
0
0
239
0
0
239
0
0
239
0
0
233
0
1
239
0
0
233
0
1
233
0
1
239
0
0
233
0
1
164
1
0
18
8
0
28
13
0
24
15
0
32
26
0
41
34
0
55
55
0
219
219
0
255
255
1
255
255
1
253
254
0
160
161
0
32
26
0
35
25
0
33
19
0
28
13
0
22
6
0
25
2
0
25
2
0
25
2
0
25
2
0
16
0
1
5
2
8
18
3
4
12
5
3
6
7
18
6
7
18
6
7
18
0
7
16
0
7
16
0
11
24
0
17
31
0
11
24
0
11
24
6
7
18
0
7
16
0
4
7
0
4
7
5
2
8
0
4
7
0
2
0
0
4
7
0
2
0
0
2
0
7
0
0
0
2
0
7
0
0
7
0
0
22
0
3
41
0
0
233
0
1
255
0
0
255
0
0
255
0
0
255
0
0
255
0
0
255
0
0
255
0
0
255
0
0
255
0
0
255
0
0
255
0
0
255
0
0
255
0
0
255
0
0
255
0
0
255
0
0
255
0
0
255
0
0
255
0
0
255
0
0
255
0
0
255
0
0
255
0
0
255
0
0
255
0
0
255
0
0
255
0
0
255
0
0
255
0
0
176
3
0
22
6
0
33
19
0
35
25
0
36
30
0
37
35
0
99
98
3
255
255
1
255
255
1
255
255
1
253
254
0
101
94
0
36
30
0
40
29
0
33
19
0
38
16
0
34
8
0
34
8
0
25
2
0
33
0
1
75
8
0
132
3
0
176
3
0
33
0
1
16
8
20
8
5
11
4
15
41
0
72
181
3
59
148
0
37
94
4
15
41
4
9
24
2
11
29
0
11
24
0
11
24
0
7
16
6
7
18
0
4
7
0
4
7
5
2
8
5
2
8
0
4
7
0
4
7
0
2
0
7
0
0
7
0
0
7
0
0
16
0
1
16
0
1
41
0
0
233
0
1
255
0
0
255
0
0
255
0
0
255
0
0
255
0
0
255
0
0
255
0
0
255
0
0
255
0
0
255
0
0
255
0
0
255
0
0
255
0
0
255
0
0
255
0
0
255
0
0
255
0
0
255
0
0
255
0
0
255
0
0
255
0
0
255
0
0
255
0
0
255
0
0
255
0
0
255
0
0
255
0
0
255
0
0
255
0
0
176
3
0
28
13
0
32
13
1
35
25
0
41
34
0
36
30
0
165
166
0
255
255
1
255
255
1
253
254
0
227
225
0
59
49
0
45
29
2
49
24
0
38
16
0
42
13
0
38
5
0
38
5
0
110
3
0
198
2
0
255
0
0
255
0
0
245
0
0
37
1
3
17
5
13
8
5
11
0
20
48
0
104
255
2
108
254
0
104
255
3
87
218
13
51
127
0
20
48
2
11
29
2
11
29
0
11
24
6
7
18
0
7
16
0
4
7
0
4
7
0
4
7
0
4
7
0
4
7
0
2
0
7
0
0
0
2
0
7
0
0
7
0
0
16
0
1
37
1
3
233
0
1
255
0
0
255
0
0
255
0
0
255
0
0
255
0
0
255
0
0
255
0
0
255
0
0
255
0
0
255
0
0
255
0
0
255
0
0
255
0
0
255
0
0
255
0
0
255
0
0
255
0
0
255
0
0
255
0
0
255
0
0
255
0
0
255
0
0
255
0
0
255
0
0
255
0
0
255
0
0
255
0
0
255
0
0
255
0
0
176
3
0
20
12
3
33
19
0
40
29
0
41
34
0
55
50
0
227
225
0
255
255
1
255
255
1
255
255
1
167
162
0
40
29
0
44
32
0
43
21
0
42
13
0
38
5
0
57
5
0
176
3
0
255
0
0
255
0
0
255
0
0
255
0
0
234
3
0
42
3
8
17
5
13
16
8
20
10
20
50
0
97
243
0
104
255
0
104
255
0
104
255
0
106
255
0
82
205
0
28
72
0
17
31
0
14
34
0
11
24
0
7
16
6
7
18
0
4
7
5
2
8
7
0
0
0
2
0
0
4
7
7
0
0
7
0
0
7
0
0
9
1
0
16
0
1
25
2
0
77
0
0
87
0
1
90
2
0
90
2
0
97
0
2
97
0
2
97
0
2
97
0
2
97
0
2
97
0
2
97
0
2
97
0
2
97
0
2
107
0
3
107
0
3
107
0
3
107
0
3
107
0
3
97
0
2
97
0
2
97
0
2
97
0
2
97
0
2
97
0
2
97
0
2
97
0
2
97
0
2
90
2
0
90
2
0
90
2
0
75
8
0
28
13
0
33
19
0
36
30
0
41
34
0
99
98
3
253
254
0
255
255
1
255
255
1
253
254
0
101
94
0
40
29
0
51
29
0
43
21
0
42
13
0
62
8
0
206
0
0
255
0
0
255
0
0
255
0
0
255
0
0
255
0
0
245
0
0
42
3
8
17
5
13
16
8
20
10
20
50
25
101
255
0
104
255
0
104
255
0
102
254
0
102
254
0
104
255
0
97
243
0
37
94
0
14
34
2
11
29
0
7
16
6
7
18
0
4
7
0
4
7
5
2
8
0
4
7
0
4
7
7
0
0
7
0
0
7
0
0
7
0
0
16
0
1
7
0
0
7
0
0
16
0
1
22
0
3
29
0
0
25
2
0
29
0
0
29
0
0
29
0
0
29
0
0
29
0
0
29
0
0
29
3
9
29
3
9
29
3
9
29
3
9
29
3
9
29
3
9
29
3
9
33
2
10
29
3
9
29
0
0
29
0
0
29
0
0
29
0
0
29
0
0
25
2
0
25
2
0
25
2
0
25
2
0
24
15
0
18
8
0
33
19
0
40
29
0
41
34
0
37
35
0
165
166
0
255
255
1
255
255
1
255
255
1
227
225
0
59
49
0
51
29
0
49
24
0
48
13
0
48
13
0
198
2
0
255
0
0
255
0
0
255
0
0
255
0
0
255
0
0
198
2
0
118
0
4
29
3
9
17
5
13
6
7
18
2
11
29
2
48
111
0
72
181
0
104
255
0
104
255
25
101
255
0
102
254
0
104
255
0
92
230
0
26
65
0
14
34
0
17
31
0
11
24
6
7
18
5
2
8
0
4
7
7
0
0
0
4
7
0
4
7
0
2
0
7
0
0
0
2
0
7
0
0
16
0
1
16
0
1
16
0
1
16
0
1
22
0
3
25
2
0
29
0
0
29
0
0
29
0
0
29
0
0
29
3
9
29
0
0
29
3
9
28
6
17
28
6
17
28
6
17
28
6
17
28
6
17
28
6
17
29
3
9
29
3
9
29
3
9
29
0
0
29
0
0
29
0
0
29
0
0
25
2
0
25
2
0
25
2
0
25
2
0
28
13
0
28
13
0
24
15
0
32
26
0
41
34
0
55
50
0
227
225
0
255
255
1
255
255
1
253
254
0
167
162
0
44
32
0
45
29
2
47
18
0
48
13
0
140
0
1
255
0
0
255
0
0
255
0
0
255
0
0
233
0
1
107
0
3
33
0
1
18
3
4
22
0
3
17
5
13
6
7
18
20
8
26
0
11
24
0
14
34
0
37
94
0
92
230
0
104
255
0
104
255
0
97
243
0
104
255
0
80
194
0
17
40
2
11
29
0
11
24
0
7
16
0
4
7
0
4
7
0
4
7
0
4
7
7
0
0
7
0
0
5
2
8
7
0
0
7
0
0
7
0
0
7
0
0
16
0
1
22
6
0
16
0
1
16
0
1
16
0
1
16
0
1
16
0
1
16
0
1
16
0
1
17
5
13
17
5
13
17
5
13
16
8
20
20
8
26
20
8
26
16
8
20
16
8
20
17
5
13
17
5
13
18
3
4
17
5
13
16
0
1
16
0
1
16
0
1
16
0
1
22
6
0
18
8
0
22
6
0
22
6
0
19
16
0
35
25
0
36
30
0
37
35
0
98
103
0
253
254
0
255
255
1
255
255
1
253
254
0
101
94
0
48
31
0
51
29
0
51
20
0
62
8
0
239
0
0
255
0
0
255
0
0
255
0
0
239
0
0
87
0
1
33
0
1
33
0
1
29
3
9
17
5
13
12
5
3
8
5
11
0
7
16
2
11
29
0
14
34
0
14
34
0
28
72
0
92
230
0
104
255
25
101
255
0
104
255
0
97
243
0
37
94
0
17
31
2
11
29
0
7
16
6
7
18
5
2
8
7
0
0
7
0
0
7
0
0
7
0
0
0
4
7
7
0
0
7
0
0
7
0
0
7
0
0
7
0
0
7
0
0
16
0
1
9
1
0
9
1
0
7
0
0
17
5
13
10
3
1
8
5
11
17
5
13
16
8
20
14
17
43
0
80
194
13
78
196
0
82
205
25
82
200
0
64
160
16
8
20
16
8
20
8
5
11
17
5
13
5
2
8
16
0
1
9
1
0
9
1
0
7
0
0
7
0
0
18
8
0
18
8
0
19
16
0
32
26
0
37
35
0
37
35
0
165
166
0
255
255
1
255
255
1
253
254
0
227
225
0
59
49
0
51
29
0
49
24
0
43
21
0
140
0
1
255
0
0
255
0
0
255
0
0
255
0
0
132
3
0
33
0
1
37
1
3
29
0
0
22
0
3
17
5
13
5
2
8
6
7
18
1
8
11
4
9
24
0
14
34
0
17
40
0
17
40
0
45
113
0
104
255
25
101
255
25
101
255
0
104
255
0
72
181
0
14
34
0
14
34
0
11
24
0
7
16
0
4
7
0
4
7
0
4
7
0
2
0
7
0
0
7
0
0
7
0
0
0
4
7
0
2
0
7
0
0
7
0
0
7
0
0
7
0
0
7
0
0
9
1
0
5
2
8
7
0
0
5
2
8
8
5
11
0
9
18
4
9
24
3
22
56
0
97
243
2
108
254
0
104
255
0
106
255
0
80
194
4
9
24
4
9
24
8
5
11
5
2
8
9
1
0
5
2
8
9
1
0
9
1
0
7
0
0
18
8
0
3
6
1
19
16
0
19
16
0
27
26
0
37
35
0
55
50
0
227
225
0
255
255
1
255
255
1
255
255
1
167
162
0
45
29
2
48
31
0
49
24
0
42
13
0
198
2
0
255
0
0
255
0
0
255
0
0
233
0
1
56
0
2
38
5
0
33
0
1
25
2
0
18
3
4
16
0
1
16
0
1
5
2
8
6
7
18
6
7
18
2
11
29
0
14
34
0
17
40
0
20
48
0
82
205
0
104
255
0
104
255
0
104
255
30
92
232
0
22
55
2
11
29
0
11
24
0
7
16
5
2
8
5
2
8
7
0
0
0
2
0
0
2
0
7
0
0
7
0
0
7
0
0
0
4
7
0
2
0
0
2
0
0
2
0
7
0
0
7
0
0
7
0
0
9
1
0
5
2
8
5
2
8
6
7
18
6
7
18
4
9
24
3
22
56
0
97
243
0
104
255
0
104
255
0
104
255
13
78
196
4
9
24
2
11
29
0
9
18
6
7
18
0
4
7
5
2
8
7
0
0
9
1
0
7
0
0
18
8
0
18
8
0
19
16
0
22
22
0
33
31
0
37
35
0
102
100
0
253
254
0
255
255
1
255
255
1
253
254
0
93
92
0
40
29
0
49
24
0
38
16
0
57
11
3
233
0
1
255
0
0
255
0
0
245
0
0
176
3
0
33
0
1
33
0
1
29
0
0
25
2
0
16
0
1
5
2
8
9
1
0
5
2
8
6
7
18
0
4
7
4
9
24
0
14
34
4
15
41
0
17
40
0
55
137
0
102
254
25
101
255
0
102
254
0
104
255
0
35
85
0
14
34
0
11
24
0
7
16
0
4
7
0
4
7
0
4
7
0
2
0
0
2
0
0
2
0
0
2
0
7
0
0
7
0
0
7
0
0
7
0
0
7
0
0
7
0
0
7
0
0
7
0
0
0
4
7
5
2
8
0
4
7
0
7
16
0
17
31
2
11
29
0
26
65
0
97
243
0
102
254
25
101
255
0
104
255
13
78
196
0
14
34
4
9
24
4
9
24
0
4
7
5
2
8
5
2
8
0
4
7
0
2
0
0
2
0
0
2
0
12
11
0
19
16
0
27
26
0
37
35
0
34
36
0
165
166
0
255
255
1
255
255
1
253
254
0
227
225
0
55
50
0
44
32
0
38
23
0
33
19
0
75
8
0
255
0
0
255
0
0
255
0
0
255
0
0
132
3
0
22
0
3
29
0
0
16
0
1
16
0
1
9
1
0
7
0
0
5
2
8
5
2
8
0
4
7
0
7
16
0
7
16
2
11
29
0
14
34
0
17
40
0
45
113
0
104
255
0
104
255
0
102
254
0
97
243
11
42
106
0
17
31
2
11
29
0
9
18
6
7
18
5
2
8
5
2
8
0
2
0
0
2
0
0
2
0
0
2
0
0
2
0
0
2
0
0
2
0
0
2
0
0
2
0
0
2
0
0
4
7
0
4
7
0
4
7
5
2
8
0
4
7
6
7
18
4
9
24
2
11
29
0
28
72
0
97
243
0
104
255
0
104
255
0
97
243
0
82
205
0
17
40
2
11
29
4
9
24
0
4
7
0
4
7
0
4
7
0
4
7
7
0
0
3
6
1
12
11
0
12
11
0
22
22
0
27
26
0
37
35
0
55
55
0
227
225
0
255
255
1
255
255
1
253
254
0
167
162
0
36
30
0
41
34
0
38
23
0
24
15
0
75
8
0
245
0
0
245
0
0
245
0
0
245
0
0
107
0
3
16
0
1
25
2
0
16
0
1
16
0
1
7
0
0
7
0
0
0
2
0
0
4
7
0
4
7
0
7
16
0
7
16
2
11
29
0
17
40
0
17
40
0
35
85
25
101
255
25
101
255
0
102
254
0
106
255
13
51
127
4
9
24
0
17
31
0
7
16
0
4
7
0
4
7
0
4
7
0
2
0
0
2
0
0
2
0
0
2
0
0
2
0
0
2
0
0
2
0
0
2
0
0
2
0
0
2
0
0
2
0
0
4
7
5
2
8
0
4
7
6
7
18
0
7
16
2
11
29
0
14
34
0
26
65
0
97
243
0
102
254
25
101
255
2
108
254
25
82
200
0
14
34
0
14
34
4
9
24
6
7
18
0
4
7
0
4
7
0
2
0
3
6
1
3
6
1
3
6
1
19
16
0
22
22
0
33
36
5
33
31
0
102
100
0
253
254
0
255
255
1
255
255
1
253
254
0
93
92
0
37
35
0
40
29
0
33
19
0
32
13
1
34
8
0
57
5
0
60
1
0
60
1
0
52
0
0
29
0
0
16
0
1
7
0
0
9
1
0
7
0
0
7
0
0
7
0
0
7
0
0
0
4
7
0
4
7
0
4
7
0
7
16
0
11
24
0
14
34
0
17
40
0
37
94
0
97
243
0
104
255
0
104
255
0
102
254
0
51
125
4
9
24
2
11
29
0
7
16
0
7
16
5
2
8
7
0
0
0
2
0
0
2
0
0
2
0
0
2
0
0
2
0
0
2
0
0
2
0
0
2
0
0
2
0
0
2
0
7
0
0
0
2
0
0
4
7
0
4
7
0
7
16
0
7
16
2
11
29
0
14
34
0
28
72
0
97
243
0
104
255
25
101
255
0
104
255
0
82
205
0
17
40
0
14
34
0
17
31
6
7
18
5
2
8
0
4
7
0
4
7
0
2
0
12
11
0
12
11
0
19
16
0
27
26
0
34
36
0
33
36
5
165
166
0
253
254
0
255
255
1
253
254
0
227
225
0
51
46
0
35
33
2
32
26
0
19
16
0
24
15
0
22
6
0
10
3
1
16
0
1
16
0
1
16
0
1
22
6
0
22
6
0
16
0
1
7
0
0
7
0
0
7
0
0
0
4
7
7
0
0
5
2
8
0
4
7
0
7
16
0
11
24
2
11
29
0
17
40
0
17
40
0
42
104
0
102
254
25
101
255
0
104
255
0
106
255
0
45
113
4
9
24
0
14
34
0
7
16
0
4
7
0
4
7
0
4
7
0
2
0
0
2
0
0
2
0
0
2
0
0
2
0
0
2
0
0
2
0
0
2
0
0
2
0
0
2
0
0
2
0
0
4
7
5
2
8
0
4
7
0
7
16
0
11
24
0
17
31
0
14
34
0
26
65
0
97
243
0
104
255
0
104
255
0
104
255
13
78
196
0
17
40
0
14
34
4
9
24
0
7
16
0
4
7
5
2
8
7
0
0
3
6
1
3
6
1
12
11
0
17
20
1
27
26
0
37
35
0
55
55
0
227
225
0
255
255
1
255
255
1
253
254
0
160
161
0
37
35
0
33
31
0
32
26
0
24
15
0
18
8
0
18
8
0
16
0
1
9
1
0
9
1
0
16
0
1
16
0
1
7
0
0
7
0
0
7
0
0
0
2
0
0
4
7
7
0
0
5
2
8
0
2
0
6
7
18
0
7
16
0
11
24
0
14
34
4
15
41
0
17
40
0
64
160
0
104
255
0
97
243
25
101
255
0
102
254
0
35
85
0
14
34
0
11
24
0
7
16
0
7
16
5
2
8
7
0
0
0
2
0
0
2
0
0
2
0
0
2
0
0
2
0
0
2
0
0
2
0
0
2
0
0
2
0
0
2
0
7
0
0
0
4
7
5
2
8
0
4
7
0
4
7
4
9
24
0
14
34
0
17
40
0
28
72
0
97
243
25
101
255
0
104
255
0
104
255
13
78
196
4
15
41
0
14
34
0
11
24
0
9
18
0
4
7
0
4
7
10
3
1
10
3
1
12
11
0
12
11
0
22
22
0
33
31
0
33
36
5
98
103
0
253
254
0
255
255
1
255
255
1
253
254
0
93
92
0
35
33
2
29
29
2
27
22
0
19
16
0
12
11
0
18
8
0
10
3
1
9
1
0
7
0
0
7
0
0
7
0
0
7
0
0
7
0
0
7
0
0
7
0
0
7
0
0
0
2
0
0
4
7
0
4
7
0
4
7
0
7
16
0
11
24
0
14
34
4
15
41
0
20
48
0
82
205
0
102
254
0
102
254
0
104
255
0
92
230
4
15
41
0
14
34
0
11
24
0
7
16
0
4
7
0
4
7
0
4
7
0
2
0
0
2
0
0
2
0
0
2
0
0
2
0
0
2
0
0
2
0
0
2
0
0
2
0
0
2
0
0
2
0
7
0
0
0
4
7
5
2
8
0
7
16
0
7
16
2
11
29
0
14
34
0
28
72
0
97
243
0
104
255
25
101
255
0
106
255
13
78
196
0
17
40
0
14
34
2
11
29
6
7
18
0
4
7
3
6
1
3
6
1
12
11
0
12
11
0
17
20
1
27
26
0
33
36
5
33
31
0
172
171
0
253
254
0
255
255
1
255
255
1
219
219
0
47
48
0
33
36
5
25
25
3
17
20
1
18
8
0
10
3
1
0
2
0
9
1
0
7
0
0
7
0
0
7
0
0
7
0
0
7
0
0
0
2
0
7
0
0
7
0
0
0
4
7
0
4
7
5
2
8
5
2
8
6
7
18
0
11
24
2
11
29
0
14
34
0
17
40
0
45
113
0
104
255
0
104
255
0
104
255
0
102
254
0
64
160
0
14
34
0
17
31
0
11
24
0
4
7
0
4
7
5
2
8
7
0
0
0
2
0
0
2
0
0
2
0
0
2
0
0
2
0
0
2
0
0
2
0
0
2
0
0
2
0
0
2
0
0
2
0
0
4
7
0
4
7
0
4
7
0
7
16
0
7
16
2
11
29
0
14
34
0
28
72
0
97
243
0
104
255
0
104
255
0
104
255
13
78
196
4
15
41
0
14
34
0
17
31
0
7
16
0
7
16
5
2
8
3
6
1
3
6
1
12
11
0
22
22
0
27
26
0
34
36
0
55
55
0
227
225
0
255
255
1
255
255
1
255
255
1
160
161
0
33
31
0
33
31
0
22
22
0
17
20
1
12
11
0
12
11
0
7
0
0
7
0
0
0
2
0
0
2
0
7
0
0
0
4
7
7
0
0
7
0
0
7
0
0
7
0
0
7
0
0
0
4
7
0
4
7
0
7
16
0
7
16
0
17
31
0
14
34
0
17
40
3
22
56
0
92
230
0
104
255
25
101
255
0
104
255
0
97
243
5
32
77
0
14
34
4
9
24
4
9
24
6
7
18
0
4
7
0
4
7
0
4
7
0
2
0
0
2
0
0
2
0
0
2
0
0
2
0
0
2
0
0
2
0
0
2
0
0
2
0
0
2
0
0
2
0
7
0
0
0
4
7
5
2
8
0
7
16
0
11
24
0
17
31
0
17
40
0
28
72
0
97
243
0
104
255
25
101
255
0
106
255
13
78
196
0
17
40
0
14
34
4
9
24
0
7
16
0
4
7
0
4
7
3
6
1
12
11
0
19
16
0
22
22
0
33
31
0
37
35
0
102
100
0
253
254
0
255
255
1
255
255
1
253
254
0
93
92
0
33
36
5
33
31
0
22
22
0
14
13
1
12
11
0
7
0
0
3
6
1
0
2
0
7
0
0
7
0
0
7
0
0
7
0
0
7
0
0
7
0
0
0
2
0
0
4
7
0
4
7
5
2
8
0
7
16
0
7
16
4
9
24
2
11
29
0
17
40
0
17
40
0
72
181
0
106
255
25
101
255
0
104
255
0
106
255
0
64
160
0
14
34
2
11
29
4
9
24
0
4
7
0
4
7
5
2
8
7
0
0
7
0
0
0
2
0
0
2
0
0
2
0
0
2
0
0
2
0
0
2
0
0
2
0
0
2
0
0
2
0
0
2
0
0
2
0
0
4
7
0
4
7
0
4
7
0
7
16
4
9
24
2
11
29
0
14
34
0
26
65
0
97
243
0
102
254
0
102
254
0
106
255
13
78
196
4
15
41
0
14
34
2
11
29
6
7
18
1
8
11
5
2
8
3
6
1
12
11
0
17
20
1
27
26
0
34
36
0
34
36
0
165
166
0
255
255
1
255
255
1
253
254
0
219
219
0
47
48
0
33
36
5
27
26
0
19
16
0
12
11
0
6
8
4
3
6
1
0
2
0
0
2
0
7
0
0
7
0
0
7
0
0
7
0
0
0
4
7
5
2
8
7
0
0
7
0
0
0
4
7
0
4
7
0
7
16
0
11
24
0
17
31
0
17
40
0
14
34
0
55
137
0
97
243
0
104
255
25
101
255
0
104
255
3
87
218
0
22
55
0
14
34
0
11
24
0
7
16
0
7
16
0
4
7
0
4
7
0
4
7
0
4
7
0
2
0
0
2
0
0
2
0
0
2
0
0
2
0
0
2
0
0
2
0
0
2
0
0
2
0
0
2
0
0
2
0
7
0
0
0
4
7
0
4
7
0
4
7
0
7
16
4
9
24
0
17
40
0
28
72
0
97
243
0
104
255
0
104
255
0
102
254
13
78
196
0
17
40
0
17
40
0
11
24
0
7
16
0
4
7
6
8
4
6
8
4
12
11
0
17
20
1
27
26
0
37
35
0
55
55
0
229
233
0
255
255
1
255
255
1
253
254
0
160
161
0
33
31
0
33
31
0
22
22
0
11
18
6
12
11
0
12
11
0
7
0
0
0
2
0
7
0
0
0
2
0
0
2
0
0
2
0
0
2
0
0
4
7
0
4
7
0
4
7
0
4
7
0
4
7
6
7
18
0
7
16
4
9
24
0
17
40
0
14
34
0
37
94
2
108
254
0
102
254
25
101
255
0
102
254
0
97
243
0
35
85
0
14
34
2
11
29
0
11
24
0
7
16
0
4
7
5
2
8
5
2
8
7
0
0
0
4
7
0
2
0
0
2
0
0
2
0
0
2
0
0
2
0
0
2
0
0
2
0
0
2
0
0
2
0
0
2
0
0
2
0
5
2
8
5
2
8
5
2
8
0
7
16
0
11
24
2
11
29
0
17
40
0
28
72
0
97
243
25
101
255
0
104
255
0
104
255
13
78
196
4
15
41
0
14
34
0
11
24
6
7
18
0
4
7
6
8
4
12
11
0
14
13
1
22
22
0
33
31
0
33
31
0
102
100
0
253
254
0
253
254
0
253
254
0
253
254
0
93
92
0
33
36
5
33
31
0
22
22
0
19
16
0
0
2
0
3
6
1
7
0
0
0
2
0
0
2
0
0
2
0
0
2
0
0
2
0
0
4
7
7
0
0
5
2
8
5
2
8
5
2
8
0
4
7
0
9
18
0
17
31
0
14
34
2
11
29
0
28
72
30
92
232
0
104
255
0
104
255
0
104
255
0
104
255
0
55
137
0
14
34
0
14
34
4
9
24
0
7
16
5
2
8
0
4
7
0
4
7
0
4
7
0
4
7
0
2
0
0
2
0
0
2
0
0
2
0
0
2
0
0
2
0
0
2
0
0
2
0
0
2
0
0
2
0
0
2
0
0
2
0
0
4
7
0
4
7
0
4
7
0
4
7
0
11
24
4
9
24
0
14
34
0
28
72
0
97
243
0
104
255
25
101
255
0
106
255
13
78
196
0
17
40
0
14
34
2
11
29
0
9
18
1
8
11
6
8
4
12
11
0
17
20
1
27
26
0
33
36
5
34
36
0
172
171
0
253
254
0
255
255
1
253
254
0
215
215
0
47
48
0
33
36
5
22
22
0
19
16
0
12
11
0
12
11
0
3
6
1
0
2
0
5
2
8
0
2
0
0
2
0
0
2
0
0
4
7
0
2
0
0
4
7
0
4
7
0
4
7
0
4
7
0
7
16
2
11
29
2
11
29
0
14
34
3
22
56
0
82
205
0
106
255
0
104
255
0
102
254
0
102
254
0
64
160
0
14
34
0
14
34
0
17
31
0
11
24
0
7
16
0
4
7
0
4
7
7
0
0
7
0
0
0
4
7
0
2
0
0
2
0
0
2
0
0
2
0
0
2
0
0
2
0
0
2
0
0
2
0
0
2
0
0
2
0
0
2
0
7
0
0
0
4
7
0
4
7
5
2
8
0
7
16
0
11
24
0
14
34
0
14
34
0
28
72
0
97
243
0
104
255
0
102
254
0
106
255
13
78
196
4
15
41
0
14
34
4
9
24
0
9
18
1
8
11
6
8
4
12
11
0
17
20
1
29
29
2
37
35
0
47
48
0
232
229
0
255
255
1
255
255
1
253
254
0
155
157
1
33
31
0
33
36
5
22
22
0
19
16
0
12
11
0
12
11
0
0
2
0
0
2
0
0
2
0
0
2
0
0
2
0
0
4
7
5
2
8
7
0
0
5
2
8
5
2
8
0
7
16
0
7
16
0
9
18
2
11
29
4
15
41
0
14
34
0
67
169
0
106
255
25
101
255
25
101
255
0
106
255
0
82
205
0
20
48
0
14
34
2
11
29
0
7
16
0
7
16
0
7
16
0
4
7
0
4
7
0
4
7
0
4
7
0
2
0
0
2
0
0
2
0
0
2
0
0
2
0
0
2
0
0
2
0
0
2
0
0
2
0
0
2
0
0
2
0
0
2
0
0
2
0
7
0
0
0
4
7
0
4
7
0
4
7
0
7
16
2
11
29
0
17
40
0
26
65
0
97
243
0
102
254
25
101
255
0
104
255
13
78
196
0
20
48
0
14
34
0
11
24
0
9
18
1
8
11
6
8
4
15
15
3
22
22
0
33
31
0
34
36
0
98
103
0
253
254
0
255
255
1
253
254
0
253
254
0
93
92
0
33
31
0
33
31
0
22
22
0
12
11
0
12
11
0
7
0
0
0
2
0
0
2
0
0
2
0
0
2
0
0
4
7
0
4
7
0
2
0
0
4
7
0
4
7
0
4
7
0
7
16
0
11
24
4
9
24
0
17
40
0
14
34
13
51
127
0
104
255
0
102
254
0
104
255
0
104
255
0
92
230
0
26
65
0
14
34
0
17
31
0
11
24
0
7
16
0
4
7
0
4
7
5
2
8
5
2
8
7
0
0
0
4
7
0
2
0
0
2
0
0
2
0
0
2
0
0
2
0
0
2
0
0
2
0
0
2
0
0
2
0
0
2
0
0
2
0
0
2
0
0
2
0
5
2
8
0
4
7
0
4
7
0
7
16
0
7
16
2
11
29
0
17
40
0
26
65
0
97
243
0
104
255
0
102
254
0
104
255
0
80
194
4
15
41
0
14
34
0
11
24
8
5
11
13
18
20
11
14
10
17
20
1
27
26
0
34
36
0
37
35
0
172
171
0
253
254
0
255
255
1
253
254
0
219
219
0
47
48
0
33
36
5
27
26
0
17
20
1
12
11
0
3
6
1
3
6
1
7
0
0
0
2
0
0
2
0
0
2
0
0
4
7
0
4
7
5
2
8
5
2
8
0
4
7
0
4
7
0
7
16
0
17
31
0
14
34
0
14
34
0
37
94
0
97
243
0
104
255
25
101
255
0
102
254
0
104
255
0
42
104
0
14
34
0
14
34
4
9
24
0
7
16
6
7
18
5
2
8
0
4
7
0
4
7
0
4
7
0
4
7
0
2
0
0
2
0
0
2
0
0
2
0
0
2
0
0
2
0
0
2
0
0
2
0
0
2
0
0
2
0
0
2
0
0
2
0
0
2
0
0
2
0
0
4
7
0
4
7
5
2
8
0
4
7
0
11
24
2
11
29
0
17
40
0
28
72
0
97
243
0
102
254
0
104
255
0
106
255
13
78
196
0
17
40
0
14
34
0
11
24
7
16
23
6
8
4
14
13
1
17
20
1
29
29
2
37
35
0
55
55
0
229
233
0
255
255
1
255
255
1
253
254
0
155
157
1
33
31
0
33
31
0
22
22
0
19
16
0
12
11
0
12
11
0
9
1
0
0
4
7
5
2
8
0
2
0
0
4
7
0
4
7
7
0
0
0
4
7
0
4
7
6
7
18
4
9
24
2
11
29
0
14
34
0
14
34
0
26
65
0
92
230
0
104
255
25
101
255
0
97
243
0
106
255
0
55
137
0
14
34
0
14
34
2
11
29
0
9
18
0
7
16
0
4
7
0
4
7
0
4
7
7
0
0
7
0
0
0
2
0
0
2
0
0
2
0
0
2
0
0
2
0
0
2
0
0
2
0
0
2
0
0
2
0
0
2
0
0
2
0
0
2
0
0
2
0
0
2
0
7
0
0
5
2
8
0
4
7
0
4
7
0
4
7
0
11
24
2
11
29
0
17
40
0
26
65
0
97
243
25
101
255
0
102
254
0
104
255
13
78
196
0
20
48
0
14
34
0
9
18
7
16
23
11
14
10
15
15
3
17
20
1
33
31
0
37
35
0
102
100
0
253
254
0
255
255
1
253
254
0
253
254
0
93
92
0
33
36
5
29
29
2
17
20
1
12
11
0
3
6
1
3
6
1
0
2
0
0
2
0
0
2
0
0
4
7
7
0
0
0
4
7
5
2
8
0
4
7
0
7
16
0
7
16
4
9
24
0
14
34
0
17
40
4
15
41
13
78
196
0
104
255
0
104
255
25
101
255
0
106
255
0
72
181
0
17
40
0
14
34
4
9
24
4
9
24
0
7
16
0
7
16
0
4
7
5
2
8
0
4
7
0
4
7
0
4
7
0
2
0
0
2
0
0
2
0
0
2
0
0
2
0
0
2
0
0
2
0
0
2
0
0
2
0
0
2
0
0
2
0
0
2
0
0
2
0
0
2
0
0
2
0
0
4
7
0
4
7
5
2
8
0
7
16
0
7
16
2
11
29
0
14
34
0
28
72
0
97
243
0
104
255
25
101
255
0
106
255
13
78
196
0
17
40
6
20
39
4
9
24
1
8
11
8
19
14
15
21
11
25
25
3
33
36
5
35
33
2
172
171
0
253
254
0
255
255
1
253
254
0
215
215
0
47
48
0
33
36
5
27
26
0
17
20
1
19
16
0
12
11
0
3
6
1
0
2
0
5
2
8
0
4
7
0
4
7
0
4
7
7
0
0
0
4
7
6
7
18
0
7
16
0
7
16
0
17
31
0
14
34
0
17
40
0
64
160
2
108
254
0
104
255
25
101
255
0
102
254
0
82
205
0
20
48
0
17
40
0
14
34
0
11
24
0
7
16
0
4
7
0
4
7
5
2
8
0
4
7
7
0
0
0
4
7
0
2
0
0
2
0
0
2
0
0
2
0
0
2
0
0
2
0
0
2
0
0
2
0
0
2
0
0
2
0
0
2
0
0
2
0
0
2
0
0
2
0
0
2
0
7
0
0
0
4
7
0
4
7
0
4
7
0
7
16
0
7
16
0
14
34
0
17
40
0
26
65
0
97
243
0
102
254
0
104
255
0
106
255
13
78
196
0
17
40
6
20
39
4
9
24
7
13
16
15
15
3
17
20
1
29
29
2
34
36
0
55
55
0
232
229
0
255
255
1
255
255
1
253
254
0
155
157
1
33
31
0
33
31
0
22
22
0
11
18
6
10
9
0
10
9
0
7
0
0
0
2
0
0
2
0
0
4
7
7
0
0
0
4
7
5
2
8
0
4
7
0
4
7
0
11
24
2
11
29
0
14
34
0
14
34
0
51
125
0
102
254
25
101
255
0
104
255
0
104
255
0
97
243
0
28
72
0
14
34
0
14
34
4
9
24
0
7
16
6
7
18
0
4
7
0
2
0
7
0
0
0
2
0
0
4
7
0
2
0
0
2
0
0
2
0
0
2
0
0
2
0
0
2
0
0
2
0
0
2
0
0
2
0
0
2
0
0
2
0
0
2
0
0
2
0
0
2
0
0
2
0
0
2
0
0
2
0
7
0
0
0
4
7
0
4
7
0
4
7
0
11
24
2
11
29
0
14
34
0
28
72
0
97
243
0
104
255
25
101
255
0
104
255
13
78
196
4
15
41
0
14
34
11
19
26
13
18
20
11
18
6
23
29
8
28
33
7
34
36
0
98
103
0
253
254
0
255
255
1
253
254
0
253
254
0
86
87
0
33
36
5
29
29
2
22
22
0
19
16
0
12
11
0
0
2
0
0
2
0
0
2
0
0
4
7
0
4
7
0
4
7
7
0
0
0
4
7
0
4
7
0
7
16
0
11
24
2
11
29
0
14
34
13
35
87
0
97
243
0
104
255
0
104
255
0
102
254
0
104
255
0
42
104
0
14
34
0
14
34
4
9
24
0
11
24
0
7
16
0
4
7
5
2
8
0
4
7
0
4
7
5
2
8
0
2
0
0
2
0
0
2
0
0
2
0
0
2
0
0
2
0
0
2
0
0
2
0
0
2
0
0
2
0
0
2
0
0
2
0
0
2
0
0
2
0
0
2
0
0
2
0
0
2
0
0
2
0
5
2
8
5
2
8
0
4
7
0
4
7
0
7
16
0
14
34
0
17
40
0
26
65
0
97
243
0
102
254
0
102
254
0
106
255
0
85
201
0
17
40
0
17
31
7
16
23
13
18
20
11
18
6
25
25
3
33
31
0
37
35
0
172
171
0
255
255
1
255
255
1
253
254
0
219
219
0
47
48
0
34
36
0
22
22
0
19
16
0
10
9
0
10
9
0
3
6
1
7
0
0
0
2
0
0
4
7
7
0
0
0
4
7
5
2
8
6
7
18
0
7
16
0
11
24
0
17
31
0
14
34
3
22
56
0
92
230
0
104
255
25
101
255
25
101
255
0
106
255
3
59
148
0
14
34
0
14
34
2
11
29
0
7
16
0
4
7
0
4
7
0
4
7
5
2
8
7
0
0
0
4
7
0
2
0
0
2
0
0
2
0
0
2
0
0
2
0
0
2
0
0
2
0
0
2
0
0
2
0
0
2
0
0
2
0
0
2
0
0
2
0
0
2
0
0
2
0
0
2
0
0
2
0
0
2
0
0
2
0
0
4
7
0
4
7
5
2
8
0
7
16
0
11
24
2
11
29
0
14
34
0
28
72
0
97
243
0
104
255
0
104
255
0
104
255
13
78
196
0
17
40
0
14
34
7
16
23
8
19
14
20
23
7
28
33
7
34
36
0
55
55
0
229
233
0
255
255
1
253
254
0
253
254
0
155
157
1
33
31
0
33
31
0
22
22
0
11
18
6
12
11
0
3
6
1
0
2
0
0
4
7
5
2
8
0
4
7
0
4
7
7
0
0
0
4
7
0
4
7
0
7
16
0
11
24
2
11
29
0
14
34
13
78
196
0
106
255
25
101
255
0
104
255
0
106
255
0
72
181
0
17
40
0
14
34
2
11
29
0
7
16
0
7
16
6
7
18
5
2
8
0
4
7
0
2
0
0
2
0
7
0
0
0
2
0
0
2
0
0
2
0
0
2
0
0
2
0
0
2
0
0
2
0
0
2
0
0
2
0
0
2
0
0
2
0
0
2
0
0
2
0
0
2
0
0
2
0
0
2
0
0
2
0
0
2
0
7
0
0
0
4
7
0
4
7
0
4
7
0
7
16
0
7
16
0
14
34
0
17
40
0
26
65
0
97
243
25
101
255
0
104
255
0
104
255
25
82
200
6
20
39
5
21
35
11
19
26
12
21
17
25
25
3
28
33
7
33
36
5
106
104
0
255
255
1
255
255
1
253
254
0
253
254
0
93
92
0
33
31
0
33
31
0
22
22
0
19
16
0
10
9
0
0
2
0
0
2
0
0
2
0
0
2
0
7
0
0
0
2
0
0
4
7
0
4
7
0
4
7
0
9
18
0
11
24
4
9
24
3
59
148
0
106
255
0
104
255
25
101
255
0
106
255
3
87
218
3
22
56
0
14
34
0
17
31
0
11
24
1
8
11
0
4
7
0
4
7
9
1
0
5
2
8
5
2
8
0
2
0
0
2
0
0
2
0
0
2
0
0
2
0
0
2
0
0
2
0
0
2
0
0
2
0
0
2
0
0
2
0
0
2
0
0
2
0
0
2
0
0
2
0
0
2
0
0
2
0
0
2
0
0
2
0
0
2
0
0
2
0
7
0
0
0
4
7
0
4
7
0
4
7
0
11
24
2
11
29
0
14
34
0
28
72
0
97
243
0
104
255
25
101
255
0
104
255
13
78
196
6
20
39
5
21
35
12
23
24
21
25
17
23
29
8
35
33
2
37
35
0
177
176
0
255
255
1
253
254
0
253
254
0
215
215
0
47
48
0
34
36
0
27
26
0
17
20
1
12
11
0
12
11
0
3
6
1
0
2
0
7
0
0
0
2
0
0
2
0
5
2
8
3
6
1
0
4
7
1
8
11
0
9
18
0
7
16
2
48
111
0
104
255
0
104
255
25
101
255
0
102
254
0
92
230
5
36
81
0
17
31
2
11
29
0
9
18
1
8
11
1
8
11
6
8
4
6
8
4
3
6
1
12
11
0
3
6
1
3
6
1
3
6
1
9
1
0
7
0
0
7
0
0
5
2
8
0
2
0
0
2
0
0
2
0
0
2
0
0
2
0
0
2
0
0
2
0
0
2
0
0
2
0
0
2
0
0
2
0
0
2
0
0
2
0
0
2
0
0
2
0
5
2
8
5
2
8
0
4
7
0
4
7
0
7
16
0
14
34
0
17
40
0
28
72
0
97
243
0
104
255
0
102
254
0
104
255
25
82
200
6
20
39
10
22
31
12
23
24
21
25
17
28
33
7
34
36
0
55
55
0
232
229
0
255
255
1
253
254
0
253
254
0
149
152
0
33
31
0
33
31
0
22
22
0
17
20
1
10
9
0
18
8
0
3
6
1
0
2
0
7
0
0
5
2
8
3
6
1
9
1
0
6
8
4
7
13
16
11
14
10
8
19
14
9
35
75
0
106
255
0
104
255
0
104
255
0
106
255
0
104
255
2
48
111
7
16
23
10
22
31
0
11
24
13
18
20
7
13
16
7
13
16
11
14
10
6
8
4
6
8
4
12
11
0
12
5
3
12
5
3
6
8
4
3
6
1
3
6
1
0
2
0
7
0
0
7
0
0
0
2
0
0
2
0
0
2
0
0
2
0
0
2
0
0
2
0
0
2
0
0
2
0
0
2
0
0
2
0
0
2
0
0
2
0
0
2
0
0
2
0
0
4
7
0
4
7
5
2
8
0
7
16
0
7
16
2
11
29
0
14
34
0
28
72
0
97
243
0
102
254
0
104
255
0
106
255
25
82
200
7
16
32
5
21
35
12
23
24
22
26
11
30
35
11
33
36
5
105
108
2
255
255
1
255
255
1
253
254
0
253
254
0
86
87
0
33
31
0
29
29
2
17
20
1
12
11
0
12
11
0
0
2
0
7
0
0
3
6
1
3
6
1
3
6
1
3
6
1
6
8
4
6
8
4
14
13
1
11
14
10
7
13
16
7
68
157
0
85
201
0
80
194
0
80
194
0
85
201
12
60
137
12
23
24
12
23
24
12
23
24
12
21
17
8
19
14
15
15
3
11
18
6
11
18
6
11
18
6
11
18
6
12
11
0
14
13
1
12
11
0
12
11
0
6
8
4
6
8
4
12
11
0
3
6
1
3
6
1
7
0
0
5
2
8
0
2
0
0
2
0
0
2
0
0
2
0
0
2
0
0
2
0
0
2
0
0
2
0
0
2
0
0
2
0
0
2
0
7
0
0
0
4
7
0
4
7
0
4
7
0
4
7
0
7
16
0
17
31
0
14
34
0
26
65
0
97
243
25
101
255
0
104
255
0
106
255
0
80
194
5
21
35
11
19
26
19
27
24
25
33
20
33
36
5
35
33
2
177
176
0
255
255
1
253
254
0
253
254
0
215
215
0
47
48
0
34
36
0
27
26
0
17
20
1
12
11
0
6
8
4
3
6
1
5
2
8
0
4
7
3
6
1
12
11
0
6
8
4
14
13
1
11
14
10
15
15
3
11
18
6
12
21
17
18
28
19
12
21
17
19
27
24
19
27
24
19
27
24
19
27
24
19
27
24
18
28
19
18
28
19
21
25
17
21
25
17
19
21
4
19
21
4
19
16
0
19
16
0
19
16
0
17
20
1
17
20
1
17
20
1
17
20
1
12
11
0
12
11
0
3
6
1
3
6
1
3
6
1
0
2
0
5
2
8
0
2
0
0
2
0
0
2
0
0
2
0
0
2
0
0
2
0
0
2
0
0
2
0
0
2
0
0
2
0
0
2
0
0
2
0
7
0
0
0
4
7
0
4
7
6
7
18
0
7
16
4
9
24
0
14
34
0
28
72
0
97
243
0
104
255
25
101
255
0
106
255
0
82
205
5
21
35
10
25
29
19
27
24
28
33
7
33
36
5
55
55
0
229
233
0
255
255
1
255
255
1
253
254
0
149
152
0
33
31
0
33
36
5
22
22
0
14
13
1
12
11
0
12
11
0
3
6
1
10
9
0
0
2
0
18
8
0
10
3
1
12
11
0
15
15
3
19
16
0
22
26
11
22
26
11
26
26
6
22
26
11
26
33
14
26
33
14
26
33
14
25
33
20
26
33
14
26
33
14
26
33
14
31
31
5
28
33
7
28
33
7
33
36
5
33
31
0
33
36
5
33
31
0
29
29
2
27
26
0
25
25
3
22
22
0
19
16
0
17
20
1
12
11
0
12
11
0
6
8
4
3
6
1
12
11
0
0
2
0
5
2
8
0
2
0
0
2
0
0
2
0
0
2
0
0
2
0
0
2
0
0
2
0
0
2
0
0
2
0
0
2
0
0
2
0
0
4
7
5
2
8
0
4
7
0
4
7
0
7
16
0
11
24
2
11
29
0
26
65
0
97
243
0
104
255
0
102
254
2
108
254
0
80
194
5
21
35
19
27
24
18
28
19
26
33
14
33
36
5
105
108
2
255
255
1
255
255
1
253
254
0
253
254
0
86
87
0
33
31
0
33
31
0
22
22
0
12
11
0
6
8
4
3
6
1
0
2
0
10
9
0
0
2
0
12
11
0
12
11
0
11
18
6
19
21
4
19
21
4
19
16
0
23
29
8
26
26
6
26
33
14
26
33
14
26
33
14
30
35
11
30
35
11
30
35
11
31
31
5
30
35
11
31
31
5
28
33
7
29
29
2
33
36
5
29
29
2
29
29
2
33
36
5
33
31
0
33
31
0
27
26
0
25
25
3
19
16
0
19
16
0
19
16
0
19
16
0
12
11
0
3
6
1
3
6
1
0
2
0
0
2
0
0
2
0
0
2
0
0
2
0
0
2
0
0
2
0
0
2
0
0
2
0
0
2
0
0
2
0
0
2
0
0
2
0
7
0
0
0
2
0
0
4
7
6
7
18
0
7
16
0
11
24
0
17
31
0
26
65
0
97
243
0
102
254
25
101
255
0
104
255
0
80
194
10
25
29
19
27
24
25
33
20
33
36
5
33
36
5
172
171
0
255
255
1
255
255
1
253
254
0
215
215
0
47
48
0
33
36
5
23
29
8
17
20
1
19
16
0
12
11
0
10
3
1
3
6
1
0
2
0
3
6
1
10
9
0
11
18
6
19
16
0
22
22
0
55
55
0
98
103
0
106
104
0
105
108
2
105
108
2
105
108
2
105
108
2
105
108
2
105
108
2
105
108
2
105
108
2
105
108
2
105
108
2
106
104
0
105
108
2
105
108
2
105
108
2
105
108
2
105
108
2
98
103
0
105
108
2
98
103
0
98
103
0
98
103
0
93
92
0
47
48
0
14
13
1
12
11
0
12
11
0
3
6
1
3
6
1
7
0
0
0
2
0
0
2
0
0
2
0
0
2
0
0
2
0
0
2
0
0
2
0
0
2
0
0
2
0
0
2
0
0
2
0
0
2
0
5
2
8
0
4
7
0
4
7
0
7
16
0
7
16
0
11
24
3
22
56
0
97
243
0
104
255
25
101
255
0
108
255
13
78
196
10
25
29
19
27
24
25
33
20
30
35
11
55
55
0
232
229
0
255
255
1
255
255
1
253
254
0
149
152
0
33
31
0
33
31
0
27
22
0
12
11
0
10
9
0
10
9
0
0
2
0
3
6
1
3
6
1
12
11
0
12
11
0
19
16
0
19
16
0
37
35
0
215
215
0
253
254
0
255
255
1
255
255
1
255
255
1
255
255
1
255
255
1
255
255
1
255
255
1
255
255
1
255
255
1
255
255
1
255
255
1
253
254
0
253
254
0
253
254
0
253
254
0
253
254
0
255
255
1
253
254
0
253
254
0
253
254
0
253
254
0
255
255
1
255
255
1
114
116
0
12
11
0
14
13
1
12
11
0
18
8
0
3
6
1
0
2
0
0
2
0
0
2
0
0
2
0
0
2
0
0
2
0
0
2
0
0
2
0
0
2
0
0
2
0
0
2
0
0
2
0
5
2
8
0
4
7
0
4
7
0
4
7
0
4
7
0
7
16
0
7
16
0
22
55
0
97
243
0
104
255
0
104
255
0
108
255
0
80
194
8
19
14
18
28
19
26
33
14
26
33
14
105
108
2
255
255
1
255
255
1
253
254
0
253
254
0
86
87
0
33
31
0
27
26
0
17
20
1
19
16
0
10
9
0
0
2
0
3
6
1
10
3
1
9
1
0
0
2
0
12
11
0
17
20
1
17
20
1
165
166
0
253
254
0
255
255
1
255
255
1
255
255
1
255
255
1
255
255
1
255
255
1
255
255
1
255
255
1
255
255
1
255
255
1
255
255
1
255
255
1
253
254
0
253
254
0
253
254
0
253
254
0
253
254
0
255
255
1
253
254
0
255
255
1
253
254
0
253
254
0
255
255
1
255
255
1
114
116
0
12
11
0
14
13
1
12
11
0
3
6
1
3
6
1
7
0
0
0
2
0
0
2
0
0
2
0
0
2
0
0
2
0
0
2
0
0
2
0
0
2
0
0
2
0
0
2
0
0
2
0
7
0
0
7
0
0
5
2
8
5
2
8
0
4
7
0
7
16
0
7
16
2
11
29
5
32
77
0
35
85
0
35
85
5
36
81
15
32
62
11
14
10
22
26
11
31
31
5
26
33
14
177
176
0
255
255
1
253
254
0
253
254
0
215
215
0
42
44
1
33
31
0
22
22
0
17
20
1
12
11
0
10
9
0
0
2
0
3
6
1
12
11
0
10
9
0
10
9
0
12
11
0
6
8
4
123
124
0
253
254
0
255
255
1
255
255
1
255
255
1
255
255
1
255
255
1
255
255
1
255
255
1
255
255
1
255
255
1
255
255
1
255
255
1
255
255
1
255
255
1
255
255
1
255
255
1
255
255
1
253
254
0
255
255
1
255
255
1
255
255
1
255
255
1
255
255
1
255
255
1
255
255
1
253
254
0
114
116
0
12
11
0
12
11
0
12
11
0
3
6
1
3
6
1
0
2
0
0
2
0
0
2
0
0
2
0
0
2
0
0
2
0
0
2
0
0
2
0
0
2
0
0
2
0
0
2
0
0
2
0
0
4
7
0
4
7
0
2
0
0
4
7
5
2
8
0
4
7
0
7
16
0
7
16
0
7
16
6
7
18
8
5
11
11
14
10
12
23
24
12
21
17
22
26
11
26
33
14
47
48
0
230
234
2
255
255
1
253
254
0
253
254
0
149
152
0
27
26
0
33
31
0
22
22
0
12
11
0
12
11
0
3
6
1
3
6
1
7
0
0
0
2
0
0
2
0
12
11
0
6
8
4
27
26
0
149
152
0
165
166
0
165
166
0
168
168
3
172
171
0
177
176
0
172
171
0
177
176
0
177
176
0
177
176
0
177
176
0
177
176
0
177
176
0
177
176
0
184
182
0
177
176
0
184
182
0
184
182
0
184
182
0
184
182
0
184
182
0
184
182
0
184
182
0
184
182
0
184
182
0
184
182
0
184
182
0
86
87
0
12
11
0
19
16
0
12
11
0
3
6
1
3
6
1
7
0
0
0
2
0
0
2
0
0
2
0
0
2
0
0
2
0
0
2
0
0
2
0
0
2
0
0
2
0
0
2
0
0
2
0
0
2
0
0
4
7
0
4
7
0
4
7
0
4
7
0
4
7
0
4
7
0
4
7
0
7
16
0
9
18
0
9
18
1
8
11
13
18
20
11
14
10
22
26
11
19
16
0
99
98
3
255
255
1
255
255
1
253
254
0
253
254
0
79
81
3
27
26
0
22
22
0
17
20
1
12
11
0
12
11
0
9
1
0
3
6
1
0
2
0
0
2
0
7
0
0
10
9
0
12
11
0
12
11
0
12
11
0
14
13
1
17
20
1
20
23
7
25
25
3
28
33
7
28
33
7
28
33
7
35
33
2
31
31
5
35
33
2
33
36
5
33
36
5
33
31
0
35
33
2
33
31
0
33
36
5
33
31
0
33
36
5
35
33
2
35
33
2
33
31
0
33
31
0
28
33
7
25
25
3
17
20
1
19
16
0
19
16
0
12
11
0
12
11
0
18
8
0
0
2
0
3
6
1
0
2
0
0
2
0
0
2
0
0
2
0
0
2
0
0
2
0
0
2
0
0
2
0
0
2
0
0
2
0
0
2
0
0
2
0
0
2
0
0
4
7
7
0
0
0
2
0
0
4
7
5
2
8
0
4
7
0
7
16
0
4
7
0
4
7
1
8
11
8
5
11
11
14
10
15
15
3
15
15
3
15
21
11
177
176
0
255
255
1
255
255
1
253
254
0
209
210
0
34
36
0
27
26
0
22
22
0
12
11
0
12
11
0
3
6
1
3
6
1
7
0
0
7
0
0
7
0
0
0
2
0
0
2
0
3
6
1
12
11
0
14
13
1
15
15
3
19
16
0
27
22
0
25
25
3
25
25
3
29
29
2
29
29
2
29
29
2
33
36
5
28
33
7
29
29
2
33
31
0
33
31
0
33
36
5
33
31
0
29
29
2
33
36
5
33
31
0
29
29
2
28
33
7
28
33
7
29
29
2
27
26
0
22
22
0
27
22
0
19
16
0
17
20
1
12
11
0
3
6
1
3
6
1
3
6
1
0
2
0
7
0
0
0
2
0
0
2
0
0
2
0
0
2
0
0
2
0
0
2
0
0
2
0
0
2
0
0
2
0
0
2
0
0
2
0
0
2
0
0
2
0
0
4
7
7
0
0
0
2
0
5
2
8
0
2
0
0
4
7
5
2
8
0
4
7
6
8
4
6
8
4
7
13
16
15
15
3
15
15
3
29
29
2
184
182
0
209
210
0
209
210
0
209
210
0
123
124
0
17
20
1
22
22
0
17
20
1
12
11
0
18
8
0
0
2
0
3
6
1
0
2
0
0
2
0
0
2
0
7
0
0
3
6
1
7
0
0
12
11
0
12
11
0
15
15
3
17
20
1
17
20
1
19
16
0
19
16
0
22
22
0
22
22
0
17
20
1
22
22
0
22
22
0
22
22
0
22
22
0
22
22
0
22
22
0
22
22
0
22
22
0
22
22
0
22
22
0
27
22
0
27
22
0
17
20
1
22
22
0
22
22
0
17
20
1
17
20
1
12
11
0
12
11
0
12
11
0
3
6
1
10
3
1
3
6
1
0
4
7
0
2
0
0
2
0
0
2
0
0
2
0
0
2
0
0
2
0
0
2
0
0
2
0
0
2
0
0
2
0
0
2
0
0
2
0
0
2
0
0
2
0
0
2
0
0
4
7
0
4
7
0
4
7
0
4
7
5
2
8
0
4
7
5
2
8
0
4
7
0
4
7
12
11
0
6
8
4
15
15
3
15
21
11
20
23
7
27
22
0
22
22
0
27
26
0
27
22
0
19
16
0
11
18
6
12
11
0
10
9
0
0
2
0
3
6
1
7
0
0
0
4
7
0
4
7
0
2
0
0
2
0
7
0
0
12
11
0
7
0
0
12
11
0
12
11
0
3
6
1
12
11
0
12
11
0
19
16
0
11
18
6
12
11
0
19
16
0
12
11
0
19
16
0
11
18
6
12
11
0
12
11
0
12
11
0
19
16
0
12
11
0
12
11
0
17
20
1
12
11
0
12
11
0
17
20
1
12
11
0
12
11
0
12
11
0
6
8
4
12
11
0
12
11
0
3
6
1
3
6
1
3
6
1
7
0
0
0
2
0
5
2
8
0
2
0
0
2
0
0
2
0
0
2
0
0
2
0
0
2
0
0
2
0
0
2
0
0
2
0
0
2
0
0
2
0
0
2
0
0
2
0
0
2
0
0
2
0
7
0
0
7
0
0
0
4
7
0
2
0
0
2
0
0
2
0
7
0
0
0
2
0
6
8
4
6
8
4
12
11
0
14
13
1
11
18
6
19
16
0
19
16
0
11
18
6
19
16
0
19
16
0
10
9
0
12
11
0
3
6
1
9
1
0
0
2
0
0
2
0
0
2
0
5
2
8
0
2
0
0
2
0
0
2
0
0
2
0
0
2
0
0
2
0
3
6
1
3
6
1
12
11
0
3
6
1
18
8
0
10
9
0
3
6
1
12
11
0
3
6
1
12
11
0
12
11
0
12
11
0
12
11
0
3
6
1
12
11
0
12
11
0
3
6
1
12
11
0
12
11
0
3
6
1
12
11
0
10
9
0
10
9
0
10
9
0
7
0
0
0
2
0
9
1
0
7
0
0
7
0
0
0
2
0
0
2
0
0
2
0
0
2
0
0
2
0
0
2
0
0
2
0
0
2
0
0
2
0
0
2
0
0
2
0
0
2
0
0
2
0
0
2
0
0
2
0
0
2
0
0
2
0
0
2
0
0
2
0
0
2
0
0
2
0
0
2
0
5
2
8
0
4
7
5
2
8
0
4
7
0
4
7
0
4
7
3
6
1
18
8
0
12
11
0
12
11
0
12
11
0
12
11
0
10
9
0
12
11
0
12
11
0
12
11
0
3
6
1
3
6
1
3
6
1
7
0
0
0
2
0
0
2
0
0
2
0
0
2
0
5
2
8
0
2
0
0
2
0
0
2
0
7
0
0
9
1
0
7
0
0
0
2
0
3
6
1
0
2
0
10
9
0
3
6
1
0
2
0
3
6
1
0
2
0
0
2
0
0
2
0
0
2
0
3
6
1
0
2
0
0
2
0
0
2
0
0
2
0
0
2
0
0
2
0
0
2
0
0
2
0
0
2
0
0
2
0
3
6
1
3
6
1
0
2
0
0
2
0
0
2
0
7
0
0
5
2
8
0
2
0
0
2
0
0
2
0
0
2
0
0
2
0
0
2
0
0
2
0
0
2
0
0
2
0
0
2
0
0
2
0
0
2
0
0
2
0
0
2
0
0
2
0
0
2
0
0
2
0
0
2
0
0
2
0
0
2
0
0
2
0
0
2
0
0
2
0
7
0
0
0
2
0
7
0
0
0
2
0
3
6
1
3
6
1
12
11
0
10
9
0
10
9
0
0
2
0
3
6
1
3
6
1
3
6
1
3
6
1
0
2
0
0
4
7
5
2
8
0
2
0
0
2
0
0
2
0
0
2
0
5
2
8
5
2
8
7
0
0
0
2
0
0
2
0
0
2
0
0
2
0
7
0
0
0
2
0
0
2
0
7
0
0
0
2
0
0
2
0
0
2
0
0
2
0
0
2
0
0
2
0
0
2
0
0
2
0
0
2
0
0
2
0
0
2
0
0
2
0
7
0
0
0
2
0
0
2
0
0
2
0
7
0
0
0
2
0
7
0
0
0
2
0
0
2
0
5
2
8
0
4
7
0
2
0
0
2
0
0
2
0
0
2
0
0
2
0
0
2
0
0
2
0
0
2
0
0
2
0
0
2
0
0
2
0
0
2
0
0
2
0
0
2
0
0
2
0
0
2
0
0
2
0
0
2
0
0
2
0
0
2
0
0
2
0
0
2
0
0
2
0
0
2
0
0
2
0
0
2
0
7
0
0
0
2
0
0
2
0
7
0
0
7
0
0
0
2
0
10
9
0
10
9
0
12
11
0
3
6
1
9
1
0
0
2
0
7
0
0
0
2
0
0
2
0
0
2
0
0
2
0
0
2
0
0
2
0
0
2
0
0
2
0
0
2
0
0
4
7
0
2
0
0
2
0
0
4
7
7
0
0
0
2
0
7
0
0
0
2
0
0
2
0
7
0
0
0
2
0
7
0
0
7
0
0
0
2
0
0
2
0
7
0
0
7
0
0
0
2
0
7
0
0
7
0
0
0
2
0
0
2
0
7
0
0
7
0
0
7
0
0
0
2
0
0
2
0
0
2
0
0
0
0
0
0
0
0
0
0
0
0
0
0
0
0
0
0
0
0
0
0
0
2
0
0
0
0
0
0
0
0
0
0
0
0
0
0
0
0
0
0
0
0
0
0
0
2
0
0
2
0
0
2
0
0
2
0
0
2
0
0
2
0
0
2
0
0
2
0
0
2
0
0
2
0
0
2
0
0
2
0
0
2
0
0
2
0
0
4
7
5
2
8
7
0
0
0
2
0
0
2
0
0
2
0
0
2
0
3
6
1
0
2
0
7
0
0
0
2
0
7
0
0
0
2
0
5
2
8
0
2
0
0
2
0
0
2
0
0
2
0
0
2
0
0
2
0
0
2
0
0
2
0
0
2
0
0
2
0
0
2
0
7
0
0
0
2
0
5
2
8
0
4
7
5
2
8
5
2
8
0
2
0
5
2
8
0
4
7
0
4
7
0
2
0
0
2
0
0
2
0
0
4
7
0
2
0
0
2
0
0
4
7
0
2
0
0
2
0
0
4
7
0
4
7
0
4
7
0
2
0
7
0
0
0
0
0
0
0
0
0
0
0
0
0
0
0
0
0
0
0
0
0
0
0
0
0
0
0
0
0
0
0
0
0
0
0
0
0
0
0
0
0
0
0
0
0
0
0
0
0
0
0
0
0
0
0
0
0
0
0
0
2
0
0
2
0
0
2
0
0
2
0
0
2
0
0
2
0
0
2
0
0
2
0
0
2
0
0
2
0
0
2
0
0
2
0
0
2
0
0
2
0
0
4
7
0
4
7
0
2
0
7
0
0
7
0
0
5
2
8
0
2
0
0
2
0
0
2
0
0
2
0
5
2
8
0
2
0
5
2
8
0
2
0
0
2
0
0
2
0
0
2
0
0
2
0
0
2
0
0
2
0
0
2
0
0
2
0
0
2
0
0
2
0
0
2
0
0
2
0
0
2
0
0
2
0
0
2
0
0
2
0
0
2
0
0
2
0
0
2
0
0
2
0
0
2
0
0
2
0
0
2
0
0
2
0
0
2
0
0
2
0
0
2
0
0
2
0
0
2
0
0
2
0
0
2
0
0
2
0
0
0
0
0
0
0
0
0
0
0
0
0
0
0
0
0
0
0
0
0
0
0
0
0
0
0
0
0
0
0
0
0
0
0
0
0
0
0
0
0
0
0
0
0
0
0
0
0
0
0
0
0
0
0
0
0
0
0
0
0
0
0
0
0
2
0
0
2
0
0
2
0
0
2
0
0
2
0
0
2
0
0
2
0
0
2
0
0
2
0
0
2
0
0
2
0
0
2
0
0
2
0
0
2
0
5
2
8
0
4
7
0
4
7
0
2
0
5
2
8
5
2
8
0
2
0
0
2
0
0
2
0
0
2
0
0
2
0
0
2
0
0
2
0
0
2
0
0
2
0
0
2
0
0
2
0
0
2
0
0
2
0
0
2
0
0
2
0
0
2
0
0
2
0
0
2
0
0
2
0
0
2
0
0
2
0
0
2
0
0
2
0
0
2
0
0
2
0
0
2
0
0
2
0
0
2
0
0
2
0
0
2
0
0
2
0
0
2
0
0
2
0
0
2
0
0
2
0
0
2
0
0
2
0
0
2
0
0
0
0
0
0
0
0
0
0
0
0
0
0
0
0
0
0
0
0
0
0
0
0
0
0
0
0
0
0
0
0
0
0
0
0
0
0
0
0
0
0
0
0
0
0
0
0
0
0
0
0
0
0
0
0
0
0
0
0
0
0
0
0
0
0
0
0
0
0
0
2
0
0
2
0
0
2
0
0
2
0
0
2
0
0
2
0
0
2
0
0
2
0
0
2
0
0
2
0
0
2
0
0
2
0
0
2
0
0
2
0
0
2
0
0
2
0
0
2
0
0
2
0
0
2
0
0
2
0
0
2
0
0
2
0
0
2
0
0
2
0
0
2
0
0
2
0
0
2
0
0
2
0
0
2
0
0
2
0
0
2
0
0
2
0
0
2
0
0
2
0
0
2
0
0
2
0
0
2
0
0
2
0
0
2
0
0
2
0
0
2
0
0
2
0
0
2
0
0
2
0
0
2
0
0
2
0
0
2
0
0
2
0
0
2
0
0
2
0
0
2
0
0
2
0
0
2
0
0
2
0
0
2
0
0
2
0
0
0
0
0
0
0
0
0
0
0
0
0
0
0
0
0
0
0
0
0
0
0
0
0
0
0
0
0
0
0
0
0
0
0
0
0
0
0
0
0
0
0
0
0
0
0
0
0
0
0
0
0
0
0
0
0
0
0
0
0
0
0
0
0
0
0
0
0
0
0
0
0
0
0
0
0
2
0
0
2
0
0
2
0
0
2
0
0
2
0
0
2
0
0
2
0
0
2
0
0
2
0
0
2
0
0
2
0
0
2
0
0
2
0
0
2
0
0
2
0
0
2
0
0
2
0
0
2
0
0
2
0
0
2
0
0
2
0
0
2
0
0
2
0
0
2
0
0
2
0
0
2
0
0
2
0
0
2
0
0
2
0
0
2
0
0
2
0
0
2
0
0
2
0
0
2
0
0
2
0
0
2
0
0
2
0
0
2
0
0
2
0
0
2
0
0
2
0
0
2
0
0
2
0
0
2
0
0
2
0
0
2
0
0
2
0
0
2
0
0
2
0
0
2
0
0
2
0
0
2
0
0
2
0
0
2
0
0
2
0
0
0
0
0
0
0
0
0
0
0
0
0
0
0
0
0
0
0
0
0
0
0
0
0
0
0
0
0
0
0
0
0
0
0
0
0
0
0
0
0
0
0
0
0
0
0
0
0
0
0
0
0
0
0
0
0
0
0
0
0
0
0
0
0
0
0
0
0
0
0
0
0
0
0
0
0
2
0
0
2
0
0
2
0
0
2
0
0
2
0
0
2
0
0
2
0
0
2
0
0
2
0
0
2
0
0
2
0
0
2
0
0
2
0
0
2
0
0
2
0
0
2
0
0
2
0
0
2
0
0
2
0
0
2
0
0
2
0
0
2
0
0
2
0
0
2
0
0
2
0
0
2
0
0
2
0
0
2
0
0
2
0
0
2
0
0
2
0
0
2
0
0
2
0
0
2
0
0
2
0
0
2
0
0
2
0
0
2
0
0
2
0
0
2
0
0
2
0
0
2
0
0
2
0
0
2
0
0
2
0
0
2
0
0
2
0
0
2
0
0
2
0
0
2
0
0
2
0
0
2
0
0
2
0
0
2
0
0
0
0
0
0
0
0
0
0
0
0
0
0
0
0
0
0
0
0
0
0
0
0
0
0
0
0
0
0
0
0
0
0
0
0
0
0
0
0
0
0
0
0
0
0
0
0
0
0
0
0
0
0
0
0
0
0
0
0
0
0
0
0
0
0
0
0
0
0
0
0
0
0
0
0
0
0
0
0
0
0
0
2
0
0
2
0
0
2
0
0
2
0
0
2
0
0
2
0
0
2
0
0
2
0
0
2
0
0
2
0
0
2
0
0
2
0
0
2
0
0
2
0
0
2
0
0
2
0
0
2
0
0
2
0
0
2
0
0
2
0
0
2
0
0
2
0
0
2
0
0
2
0
0
2
0
0
2
0
0
2
0
0
2
0
0
2
0
0
2
0
0
2
0
0
2
0
0
2
0
0
2
0
0
2
0
0
2
0
0
2
0
0
2
0
0
2
0
0
2
0
0
2
0
0
2
0
0
2
0
0
2
0
0
2
0
0
2
0
0
2
0
0
2
0
0
2
0
0
2
0
0
2
0
0
2
0
0
2
0
0
0
0
0
0
0
0
0
0
0
0
0
0
0
0
0
0
0
0
0
0
0
0
0
0
0
0
0
0
0
0
0
0
0
0
0
0
0
0
0
0
0
0
0
0
0
0
0
0
0
0
0
0
0
0
0
0
0
0
0
0
0
0
0
0
0
0
0
0
0
0
0
0
0
0
0
0
0
0
0
0
0
2
0
0
2
0
0
2
0
0
2
0
0
2
0
0
2
0
0
2
0
0
2
0
0
2
0
0
2
0
0
2
0
0
2
0
0
2
0
0
2
0
0
2
0
0
2
0
0
2
0
0
2
0
0
2
0
0
2
0
0
2
0
0
2
0
0
2
0
0
2
0
0
2
0
0
2
0
0
2
0
0
2
0
0
2
0
0
2
0
0
2
0
0
2
0
0
2
0
0
2
0
0
2
0
0
2
0
0
2
0
0
2
0
0
2
0
0
2
0
0
2
0
0
2
0
0
2
0
0
2
0
0
2
0
0
2
0
0
2
0
0
2
0
0
2
0
0
2
0
0
2
0
0
2
0
0
2
0
0
0
0
0
0
0
0
0
0
0
0
0
0
0
0
0
0
0
0
0
0
0
0
0
0
0
0
0
0
0
0
0
0
0
0
0
0
0
0
0
0
0
