P1
# CREATOR: GIMP PNM Filter Version 1.1
80 80
1111111111111111111111111111111111111111111111111111111111111111111111
1111111111111111111111111111111111111111111111111111111111111111111111
1111111111111111111111111111111111111111111111111111111111111111111111
1111111111111111111111111111111111111111111111111111111111111111111111
1111111111111111111111111111111111111111111111111111111111111111111111
1111111111111111111111111111111111111111111111111111111111111111111111
1111111111111111111111111111111111111111111111111111111111111111111111
1111111111111111111111111111111111111111111111111111111111111111111111
1111111111111111111111111111111111111111111111111111111111111111111111
1111111111111111111111111111111111111111111111111111111111111111111111
1111111111111111111111111111111111111111111111111111111111111111111111
1111111111111111111111111111111111111111111111111111111111111111111111
1111111111111111111111111111111111111111111111111111111111111111111111
1111111111111111111111111111111111111111111111111111111111111111111111
1111111111111111111111111111111111111111111111111111111111111111111111
1111111111111111111111111111111111100001111111111111111111111111111111
1111111111111111111111111111111111111111111100000111111111111111111111
1111111111111111111111111111111111111111111111111111110000011111111111
1111111111111111111111111111111111111111111111111111111111111111000011
1111111111111111111111111111111111111111111111111111111111111111111111
1110000011111111111111111111111111111111111111000000000000000000000000
0000000111111000001111111111111111111111111111111111111100000000000000
0000000000000000011111100001111111111101111011111111111111111111110000
0000000000000000000000000001111100000111111110000111100001111111111111
1111110000000000000000000000000000000111110000011111100000011110000001
1111111111111111111111111111111111111111111111111111000011111100000001
1110000000111111111111111111111111111111111111111111111111111000001111
1000000011111100000001111111111111111111111111111111111111111111111111
1000001111100000111111111100000011111111111111111111111111111111111111
1111111111100001111100000111111111111000001111111111111111111111111110
0000111111111111111100000111110000111111111111110000011111111111111111
1111111110000011111111111111110000011110000011111111111111000001111111
1111111111111111111000001111111111111111000011111000001111111111111110
0001111111111111111111111111100000111111111111111000001111100001111111
1111111110000111111111111111111111111110000011111111111111100000111110
0001111111111111111000011111111111111111111111111000001111111111111110
0001111111111111111111111111100001111111111111111111111111100000111111
1111111100000111111111111111111111111110000111111111111111111111111110
0000111111111111110000011111111111111111111111110000011111111111111111
1111111110000011111111111111000011111111111111111111111111000001111111
1111111111111111111000001111111111111000001111111111111111111111111100
0001111111111111111111111111100000111111111111100000111111111111111111
1111111000001111111111111111111111111110000011111111111110000111111111
1111111111111111000000111111111111111111111111111000001111111111110000
0111111111111111111111111100000111111111111111111111111111100000111111
1111110000011111111111111111111111100000111111111111111111111111111110
0000111111111111000011111111111111111111111100000111111111111111111111
1111111110000011111111111000001111111111111111111111100000011111111111
1111111111111111111000001111111111100000111111111111111111111100000011
1111111111111111111111111111100000111111111110000111111111111111111111
1100000111111111111111111111111111111110000011111111110000011111111111
1111111111100000111111111111111111111111111111111000001111111111000001
1111111111111111111100000111111111111111111111111111111111100000111111
1111000011111111111111111111100000011111111111111111111111111111111110
0000111111111000001111111111111111111100000011111111111111111111111111
1111111110000011111111100000111111111111111111110000011111111111111111
1111111111111111111000001111111110000111111111111111111110000011111111
1111111111111111111111111111100000111111110000011111111111111111110000
0111111111111111111111111111111111111110000011111111000001111111111111
1111100000011111111111111111111111111111111111111000001111111100001111
1111111111111110000011111111111111111111111111111111111111100000111111
1000001111111111111111110000011111111111111111111111111111111111111110
0000111111100000111111111111111110000011111111111111111111111111111111
1111111110000011111110000111111111111111110000011111111111111111111111
1111111111111111111000001111110000011111111111111111111111111111111111
1111111111111111111111111111100000111111000001111111111111111111111111
1111111111111111111111111111111111111110000011111100001111111111111111
1111111111111111111111111111111111111111111111111000001111100000111111
1111111111111111111111111111111111111111111111111111111111100000111110
0000111111111111110000000000000000000000000111111111111111111111111110
0000111110000111111111111110000000000000000000000000011111111111111111
1111111111111111110000011111111111111000000000000000000000000001111111
1111111111111111111111111111000001111111111111000000000000000000000000
0001111111111111111111111111111111111100001111111111111111111111111111
1111111111111111111111111111111111111111111111100000111111111111111111
1111111111111111111111111111111111111111111111111111111110000111111111
1111111111111111111111111111111111111111111111111111111111111111111111
1111111111111111111111111111111111111111111111111111111111111111111111
1111111111111111111111111111111111111111111111111111111111111111111111
1111111111111111111111111111111111111111111111111111111111111111111111
1111111111111111111111111111111111111111111111111111111111111111111111
1111111111111111111111111111111111111111111111111111111111111111111111
1111111111111111111111111111111111111111111111111111111111111111111111
1111111111111111111111111111111111111111111111111111111111111111111111
1111111111111111111111111111111111111111111111111111111111111111111111
1111111111111111111111111111111111111111111111111111111111111111111111
1111111111111111111111111111111111111111111111111111111111111111111111
1111111111111111111111111111111111111111111111111111111111111111111111
1111111111111111111111111111111111111111111111111111111111111111111111
1111111111111111111111111111111111111111111111111111111111111111111111
1111111111111111111111111111111111111111111111111111111111111111111111
111111111111111111111111111111